<svg width="24" height="24" viewBox="0 0 24 24" fill="none" xmlns="http://www.w3.org/2000/svg">
<path d="M5.24063 2.9156C7.97813 4.96404 10.9219 9.12654 12 11.3625C13.0781 9.13123 16.0219 4.96873 18.7594 2.9156C20.7328 1.43435 23.9297 0.290602 23.9297 3.93748C23.9297 4.66404 23.5125 10.0547 23.2687 10.9312C22.4156 13.9687 19.3125 14.7469 16.5516 14.2734C21.375 15.0937 22.6031 17.8125 19.95 20.5312C14.9156 25.6969 12.7172 19.2375 12.1547 17.5828C12.075 17.3531 12.0328 17.2172 12 17.2172C11.9672 17.2172 11.925 17.3578 11.8453 17.5828C11.2828 19.2375 9.07969 25.6969 4.05 20.5312C1.40156 17.8125 2.625 15.0937 7.44844 14.2734C4.6875 14.7469 1.58438 13.9687 0.735937 10.9265C0.4875 10.05 0.0703125 4.65935 0.0703125 3.93279C0.0703125 0.285915 3.26719 1.42967 5.24063 2.91092V2.9156Z" fill="#0559C1"/>
</svg>
