<svg width="30" height="24" viewBox="0 0 30 24" fill="none" xmlns="http://www.w3.org/2000/svg">
<path d="M24.5855 3.27185C24.5774 3.25671 24.5641 3.24503 24.548 3.23904C22.7622 2.41958 20.8778 1.83502 18.9417 1.49998C18.9243 1.49679 18.9064 1.49915 18.8904 1.50672C18.8744 1.51429 18.8612 1.52669 18.8527 1.54217C18.5959 2.00824 18.3628 2.48697 18.1542 2.97654C16.0662 2.65961 13.9423 2.65961 11.8542 2.97654C11.6449 2.48576 11.4086 2.00691 11.1464 1.54217C11.1374 1.52715 11.1241 1.51514 11.1083 1.50763C11.0924 1.50013 11.0747 1.49746 11.0574 1.49998C9.11796 1.83351 7.23022 2.41811 5.44174 3.23904C5.42606 3.24569 5.41291 3.25719 5.40424 3.27185C1.83237 8.61092 0.852681 13.814 1.33081 18.9562C1.33216 18.9692 1.33619 18.9817 1.34265 18.993C1.34911 19.0043 1.35784 19.0141 1.36831 19.0219C3.44892 20.5608 5.77574 21.7353 8.24956 22.4953C8.26734 22.5008 8.28639 22.5006 8.30405 22.4947C8.3217 22.4888 8.33707 22.4775 8.34799 22.4625C8.87878 21.7399 9.34912 20.9748 9.75424 20.175C9.75964 20.164 9.7627 20.152 9.76324 20.1397C9.76379 20.1275 9.76179 20.1153 9.75739 20.1038C9.75299 20.0924 9.74628 20.082 9.73767 20.0732C9.72906 20.0645 9.71875 20.0577 9.70737 20.0531C8.96418 19.7683 8.24473 19.4251 7.55581 19.0265C7.54363 19.0191 7.53343 19.0088 7.52605 18.9966C7.51868 18.9844 7.51435 18.9706 7.51343 18.9563C7.51251 18.9421 7.51503 18.9278 7.52077 18.9147C7.52652 18.9017 7.53532 18.8902 7.54643 18.8812C7.69174 18.7734 7.83706 18.6609 7.97299 18.5484C7.98499 18.5379 7.99972 18.531 8.01549 18.5285C8.03125 18.526 8.0474 18.528 8.06206 18.5344C12.5714 20.5922 17.4558 20.5922 21.9136 18.5344C21.9278 18.5274 21.9437 18.5246 21.9595 18.5262C21.9752 18.5279 21.9902 18.534 22.0027 18.5437C22.1386 18.6562 22.2839 18.7734 22.4292 18.8812C22.4404 18.8902 22.4492 18.9017 22.4549 18.9147C22.4606 18.9278 22.4632 18.9421 22.4622 18.9563C22.4613 18.9706 22.457 18.9844 22.4496 18.9966C22.4422 19.0088 22.432 19.0191 22.4199 19.0265C21.7327 19.4271 21.013 19.769 20.2683 20.0484C20.2569 20.053 20.2466 20.0598 20.238 20.0686C20.2294 20.0773 20.2227 20.0877 20.2183 20.0991C20.2139 20.1106 20.2119 20.1228 20.2124 20.135C20.213 20.1473 20.216 20.1593 20.2214 20.1703C20.6336 20.9661 21.1036 21.7307 21.6277 22.4578C21.6386 22.4729 21.654 22.4841 21.6716 22.49C21.6893 22.4959 21.7083 22.4961 21.7261 22.4906C24.2071 21.734 26.5406 20.5593 28.6261 19.0172C28.6368 19.0096 28.6457 18.9999 28.6522 18.9885C28.6587 18.9772 28.6626 18.9646 28.6636 18.9515C29.2355 13.0125 27.698 7.85154 24.5855 3.27185ZM10.4292 15.825C9.06987 15.825 7.95424 14.5781 7.95424 13.05C7.95424 11.5219 9.05112 10.2703 10.4292 10.2703C11.8214 10.2703 12.9277 11.5265 12.9042 13.0453C12.9042 14.5781 11.8074 15.825 10.4292 15.825ZM19.5886 15.825C18.2292 15.825 17.1136 14.5781 17.1136 13.05C17.1136 11.5219 18.2058 10.2703 19.5886 10.2703C20.9808 10.2703 22.0871 11.5265 22.0636 13.0453C22.0636 14.5781 20.9761 15.825 19.5886 15.825Z" fill="#0559C1"/>
</svg>
