<svg width="21" height="24" viewBox="0 0 21 24" fill="none" xmlns="http://www.w3.org/2000/svg">
<path d="M4.70156 21H0.346875V6.97969H4.70156V21ZM2.52187 5.06719C1.12969 5.06719 0 3.91406 0 2.52187C0 1.85303 0.265697 1.21158 0.73864 0.73864C1.21158 0.265697 1.85303 0 2.52187 0C3.19072 0 3.83217 0.265697 4.30511 0.73864C4.77805 1.21158 5.04375 1.85303 5.04375 2.52187C5.04375 3.91406 3.91406 5.06719 2.52187 5.06719ZM20.9953 21H16.65V14.175C16.65 12.5484 16.6172 10.4625 14.3859 10.4625C12.1219 10.4625 11.775 12.2297 11.775 14.0578V21H7.425V6.97969H11.6016V8.89219H11.6625C12.2438 7.79062 13.6641 6.62812 15.7828 6.62812C20.1891 6.62812 21 9.52969 21 13.2984V21H20.9953Z" fill="#0559C1"/>
</svg>
