<svg width="21" height="24" viewBox="0 0 21 24" fill="none" xmlns="http://www.w3.org/2000/svg">
<path d="M0 3C0 2.17031 0.670312 1.5 1.5 1.5C12.2719 1.5 21 10.2281 21 21C21 21.8297 20.3297 22.5 19.5 22.5C18.6703 22.5 18 21.8297 18 21C18 11.8875 10.6125 4.5 1.5 4.5C0.670312 4.5 0 3.82969 0 3ZM0 19.5C0 18.7044 0.316071 17.9413 0.87868 17.3787C1.44129 16.8161 2.20435 16.5 3 16.5C3.79565 16.5 4.55871 16.8161 5.12132 17.3787C5.68393 17.9413 6 18.7044 6 19.5C6 20.2956 5.68393 21.0587 5.12132 21.6213C4.55871 22.1839 3.79565 22.5 3 22.5C2.20435 22.5 1.44129 22.1839 0.87868 21.6213C0.316071 21.0587 0 20.2956 0 19.5ZM1.5 7.5C8.95781 7.5 15 13.5422 15 21C15 21.8297 14.3297 22.5 13.5 22.5C12.6703 22.5 12 21.8297 12 21C12 15.2016 7.29844 10.5 1.5 10.5C0.670312 10.5 0 9.82969 0 9C0 8.17031 0.670312 7.5 1.5 7.5Z" fill="#0559C1"/>
</svg>
