<svg width="27" height="24" viewBox="0 0 27 24" fill="none" xmlns="http://www.w3.org/2000/svg">
<path d="M25.767 5.81719C25.4717 4.70625 24.6045 3.83438 23.5029 3.53906C21.5061 3 13.4998 3 13.4998 3C13.4998 3 5.49355 3 3.49668 3.53906C2.39512 3.83438 1.52793 4.70625 1.23262 5.81719C0.698242 7.82812 0.698242 12.0187 0.698242 12.0187C0.698242 12.0187 0.698242 16.2094 1.23262 18.2203C1.52793 19.3313 2.39512 20.1656 3.49668 20.4609C5.49355 21 13.4998 21 13.4998 21C13.4998 21 21.5061 21 23.5029 20.4609C24.6045 20.1656 25.4717 19.3266 25.767 18.2203C26.3014 16.2094 26.3014 12.0187 26.3014 12.0187C26.3014 12.0187 26.3014 7.82812 25.767 5.81719ZM10.8842 15.825V8.2125L17.5732 12.0187L10.8842 15.825Z" fill="#0559C1"/>
</svg>
