<?xml version="1.0" standalone="no"?>
<!DOCTYPE svg PUBLIC "-//W3C//DTD SVG 20010904//EN"
 "http://www.w3.org/TR/2001/REC-SVG-20010904/DTD/svg10.dtd">
<svg version="1.0" xmlns="http://www.w3.org/2000/svg"
 width="500.000000pt" height="500.000000pt" viewBox="0 0 500.000000 500.000000"
 preserveAspectRatio="xMidYMid meet">
<metadata>
Created by potrace 1.11, written by Peter Selinger 2001-2013
</metadata>
<g transform="translate(0.000000,500.000000) scale(0.100000,-0.100000)"
fill="#000000" stroke="none">
<path d="M2220 4989 c-376 -42 -776 -187 -1094 -397 -623 -410 -1035 -1084
-1115 -1824 -14 -125 -14 -411 0 -536 117 -1084 933 -1976 1999 -2186 177 -35
294 -46 492 -46 289 0 512 36 788 126 743 244 1338 839 1584 1585 90 271 126
499 126 789 0 291 -36 517 -126 790 -304 925 -1134 1593 -2109 1700 -106 12
-438 11 -545 -1z m175 -1223 c249 -63 448 -178 625 -358 92 -92 180 -218 180
-254 0 -38 -27 -82 -60 -99 -62 -32 -109 -11 -173 77 -156 220 -411 382 -677
432 -104 20 -294 20 -397 1 -415 -79 -749 -390 -853 -794 -126 -489 107 -1008
554 -1233 166 -83 311 -118 496 -118 228 0 424 61 615 189 84 57 146 53 185
-11 41 -67 21 -113 -75 -178 -209 -141 -416 -207 -676 -217 -227 -8 -404 26
-604 116 -289 131 -557 422 -665 720 -66 181 -75 236 -75 461 0 225 9 280 75
461 150 415 543 742 990 823 135 24 405 16 535 -18z m345 -726 l0 -160 160 0
160 0 0 -105 0 -105 -160 0 -160 0 0 -279 c0 -272 0 -279 23 -312 44 -66 124
-84 240 -54 32 8 60 15 63 15 2 0 3 -48 2 -107 l-3 -108 -65 -18 c-92 -26
-258 -28 -327 -4 -69 24 -136 85 -170 155 l-28 57 -3 593 -3 592 136 0 135 0
0 -160z m1240 -176 c79 -37 128 -79 168 -142 59 -93 62 -117 62 -539 l0 -383
-130 0 -130 0 0 331 c0 210 -4 346 -11 374 -15 61 -77 129 -137 152 -123 47
-276 6 -337 -91 l-30 -49 -3 -359 -3 -358 -134 0 -135 0 0 540 0 540 130 0
130 0 0 -65 c0 -60 13 -86 26 -52 10 27 109 92 173 115 57 19 82 22 181 20
105 -3 121 -6 180 -34z m-2385 -266 c204 -534 187 -494 200 -467 6 13 74 187
150 387 l139 362 147 0 147 0 -180 -422 c-98 -233 -201 -475 -228 -538 l-48
-115 -137 0 -137 0 -224 530 c-123 292 -224 533 -224 538 0 4 65 7 143 7 l144
0 108 -282z"/>
</g>
</svg>
