<svg width="338" height="107" viewBox="0 0 338 107" fill="none" xmlns="http://www.w3.org/2000/svg">
<path d="M35.7323 82.1655L17 37.1853H29.2417L41.3191 69.2306L53.3143 37.1853H65.556L46.9059 82.1655H35.7323Z" fill="#162C44"/>
<path d="M86.0579 73.2362C88.6049 73.2362 91.1518 72.819 93.6987 71.7341V80.9137C90.3302 82.3324 86.3866 83 82.4429 83C74.3092 83 68.8045 77.3253 68.8045 68.8133V46.4484V37.1853V24H79.9781V37.1853H93.0414V46.4484H79.9781V66.4767C79.9781 70.5658 82.4429 73.2362 86.0579 73.2362Z" fill="#162C44"/>
<path d="M120.535 36.3508C131.134 36.3508 138.199 43.3607 138.199 53.8755V82.1655H127.026V55.7115C127.026 49.8699 122.918 46.0311 116.674 46.0311C110.43 46.0311 106.322 49.8699 106.322 55.7115V82.1655H95.148V37.1853H105.911L106.075 42.86C109.444 38.604 114.62 36.3508 120.535 36.3508Z" fill="#162C44"/>
<path d="M164.184 83C149.971 83 140.44 73.6535 140.44 59.6337C140.44 45.6973 149.971 36.3508 164.184 36.3508C178.315 36.3508 187.846 45.6973 187.846 59.6337C187.846 73.6535 178.315 83 164.184 83ZM164.184 73.2362C171.414 73.2362 176.262 67.8119 176.262 59.6337C176.262 51.4554 171.414 46.0311 164.184 46.0311C156.872 46.0311 152.025 51.4554 152.025 59.6337C152.025 67.8119 156.872 73.2362 164.184 73.2362Z" fill="#162C44"/>
<path d="M201.593 43.1938C205.126 38.7709 210.712 36.3508 217.86 36.3508V46.7822C208.659 46.7822 201.839 51.2885 201.839 58.0481V82.1655H190.666V37.1853H201.429L201.593 43.1938Z" fill="#162C44"/>
<path d="M238.581 73.2362C241.128 73.2362 243.675 72.819 246.222 71.7341V80.9137C242.853 82.3324 238.91 83 234.966 83C226.832 83 221.328 77.3253 221.328 68.8133V46.4484V37.1853V24H232.501V37.1853H245.565V46.4484H232.501V66.4767C232.501 70.5658 234.966 73.2362 238.581 73.2362Z" fill="#162C44"/>
<path d="M268.467 83C254.254 83 244.723 73.6535 244.723 59.6337C244.723 45.6973 254.254 36.3508 268.467 36.3508C282.598 36.3508 292.129 45.6973 292.129 59.6337C292.129 73.6535 282.598 83 268.467 83ZM268.467 73.2362C275.697 73.2362 280.544 67.8119 280.544 59.6337C280.544 51.4554 275.697 46.0311 268.467 46.0311C261.155 46.0311 256.308 51.4554 256.308 59.6337C256.308 67.8119 261.155 73.2362 268.467 73.2362Z" fill="#162C44"/>
<path d="M320.336 36.3508C330.934 36.3508 338 43.3607 338 53.8755V82.1655H326.826V55.7115C326.826 49.8699 322.718 46.0311 316.474 46.0311C310.23 46.0311 306.122 49.8699 306.122 55.7115V82.1655H294.949V37.1853H305.711L305.876 42.86C309.244 38.604 314.42 36.3508 320.336 36.3508Z" fill="#162C44"/>
<path d="M78.5287 89.104C71.504 94.0059 63.1837 96.7293 54.6109 96.929C45.945 97.131 37.4162 94.7449 30.1176 90.0768C22.819 85.4087 17.0832 78.6711 13.6456 70.7278C10.2079 62.7845 9.22497 53.9973 10.8228 45.4927C12.4205 36.9882 16.5262 29.1536 22.6136 22.9935C28.7009 16.8333 36.4925 12.6281 44.9896 10.917C53.4867 9.2059 62.3021 10.0668 70.3058 13.3894C78.3096 16.712 85.1477 22.3377 89.9236 29.5588C90.8447 30.783 92.3092 31.5965 93.9557 31.5965C96.7416 31.5965 99 29.3421 99 26.5612C99 25.6376 98.7509 24.7721 98.3161 24.028L98.3224 24.0238C98.2849 23.9671 98.2474 23.9106 98.2097 23.8541C98.172 23.7951 98.1331 23.7371 98.093 23.6798C96.2748 20.9763 94.2217 18.4567 91.9645 16.1465C86.9346 10.9982 80.8912 6.8894 74.1753 4.10143C64.3182 0.0094663 53.4615 -1.05081 42.9968 1.05652C32.5322 3.16385 22.9364 8.34276 15.4395 15.9294C7.94255 23.516 2.88614 33.1647 0.918374 43.6386C-1.04939 54.1125 0.161151 64.9344 4.39483 74.717C8.62851 84.4997 15.6924 92.7974 24.6811 98.5465C33.6697 104.296 44.1735 107.234 54.8461 106.985C62.1177 106.816 69.2418 105.172 75.7987 102.193C78.7016 100.874 81.4933 99.2934 84.1374 97.463C85.5969 96.5807 86.5722 94.9805 86.5722 93.153C86.5722 90.372 84.3138 88.1177 81.528 88.1177C80.5049 88.1177 79.553 88.4217 78.7579 88.9442L78.7573 88.9434C78.7488 88.9494 78.7404 88.9554 78.7319 88.9614C78.6629 89.0073 78.5952 89.0548 78.5287 89.104Z" fill="url(#paint0_linear_939_139)"/>
<defs>
<linearGradient id="paint0_linear_939_139" x1="15.7781" y1="83.46" x2="99.8255" y2="80.9305" gradientUnits="userSpaceOnUse">
<stop stop-color="#0585C1"/>
<stop offset="1" stop-color="#0551C1"/>
</linearGradient>
</defs>
</svg>
