<svg width="37" height="118" viewBox="0 0 37 118" fill="none" xmlns="http://www.w3.org/2000/svg">
<path d="M28.4124 105.525L12.8585 112.065L12.8585 107.791L23.9395 103.575L12.8585 99.3873L12.8585 95.1136L28.4124 101.625L28.4124 105.525Z" fill="#162C44"/>
<path d="M25.3247 87.9561C25.3247 87.0669 25.1804 86.1778 24.8053 85.2886L27.9795 85.2886C28.4701 86.4646 28.7009 87.8414 28.7009 89.2181C28.7009 92.0577 26.7387 93.9795 23.7953 93.9795L16.0616 93.9795L12.8585 93.9795L8.29908 93.9795L8.29908 90.0786L12.8585 90.0786L12.8585 85.5181L16.0616 85.5181L16.0616 90.0786L22.9873 90.0786C24.4013 90.0786 25.3247 89.2181 25.3247 87.9561Z" fill="#162C44"/>
<path d="M12.5699 75.9196C12.5699 72.2196 14.9939 69.7528 18.6299 69.7528L28.4124 69.7528L28.4124 73.6537L19.2647 73.6537C17.2447 73.6537 15.9173 75.0878 15.9173 77.2677C15.9173 79.4476 17.2447 80.8818 19.2647 80.8818L28.4124 80.8818L28.4124 84.7826L12.8585 84.7826L12.8585 81.0252L14.8207 80.9678C13.349 79.7918 12.5699 77.9848 12.5699 75.9196Z" fill="#162C44"/>
<path d="M28.7009 60.6813C28.7009 65.6434 25.469 68.9706 20.621 68.9706C15.8019 68.9706 12.5699 65.6434 12.5699 60.6813C12.5699 55.7478 15.8019 52.4206 20.621 52.4206C25.469 52.4206 28.7009 55.7478 28.7009 60.6813ZM25.3247 60.6813C25.3247 58.1572 23.449 56.4649 20.621 56.4649C17.793 56.4649 15.9173 58.1572 15.9173 60.6813C15.9173 63.234 17.793 64.9263 20.621 64.9263C23.449 64.9263 25.3247 63.234 25.3247 60.6813Z" fill="#162C44"/>
<path d="M14.9362 47.6214C13.4068 46.3881 12.5699 44.4376 12.5699 41.9422L16.177 41.9422C16.177 45.1547 17.7353 47.5354 20.0727 47.5354L28.4124 47.5354L28.4124 51.4362L12.8585 51.4362L12.8585 47.6788L14.9362 47.6214Z" fill="#162C44"/>
<path d="M25.3247 34.7083C25.3247 33.8192 25.1804 32.93 24.8053 32.0409L27.9795 32.0409C28.4701 33.2168 28.7009 34.5936 28.7009 35.9704C28.7009 38.81 26.7387 40.7317 23.7953 40.7317L16.0616 40.7317L12.8585 40.7317L8.29907 40.7317L8.29907 36.8309L12.8585 36.8309L12.8585 32.2703L16.0616 32.2703L16.0616 36.8309L22.9873 36.8309C24.4013 36.8309 25.3247 35.9704 25.3247 34.7083Z" fill="#162C44"/>
<path d="M28.7009 24.2748C28.7009 29.2369 25.469 32.5641 20.621 32.5641C15.8019 32.5641 12.5699 29.2369 12.5699 24.2748C12.5699 19.3413 15.8019 16.0141 20.621 16.0141C25.469 16.0141 28.7009 19.3413 28.7009 24.2748ZM25.3247 24.2748C25.3247 21.7507 23.449 20.0584 20.621 20.0584C17.793 20.0584 15.9173 21.7507 15.9173 24.2748C15.9173 26.8275 17.793 28.5198 20.621 28.5198C23.449 28.5198 25.3247 26.8275 25.3247 24.2748Z" fill="#162C44"/>
<path d="M12.5699 6.16676C12.5699 2.46669 14.9939 -2.24278e-05 18.6299 -2.25867e-05L28.4124 -2.30143e-05L28.4124 3.90084L19.2647 3.90084C17.2447 3.90084 15.9173 5.33497 15.9173 7.51485C15.9173 9.69474 17.2447 11.1289 19.2647 11.1289L28.4124 11.1289L28.4124 15.0297L12.8585 15.0297L12.8585 11.2723L14.8207 11.2149C13.349 10.0389 12.5699 8.23192 12.5699 6.16676Z" fill="#162C44"/>
<path d="M30.8117 90.5847C32.5067 93.0371 33.4484 95.9418 33.5175 98.9346C33.5874 101.96 32.7623 104.938 31.1481 107.486C29.5338 110.034 27.204 112.036 24.4573 113.236C21.7105 114.436 18.672 114.779 15.7311 114.222C12.7903 113.664 10.0812 112.23 7.95101 110.105C5.82086 107.98 4.36673 105.26 3.77504 102.294C3.18335 99.3271 3.48105 96.2496 4.62998 93.4554C5.77892 90.6612 7.72427 88.2739 10.2213 86.6066C10.6446 86.285 10.9259 85.7737 10.9259 85.1989C10.9259 84.2263 10.1463 83.4379 9.18472 83.4379C8.86535 83.4379 8.56606 83.5248 8.30874 83.6766L8.3073 83.6744C8.28771 83.6875 8.26815 83.7006 8.24862 83.7138C8.22823 83.7269 8.20815 83.7405 8.18835 83.7545C7.25349 84.3893 6.38223 85.106 5.58336 85.894C3.80311 87.6501 2.38232 89.7599 1.41826 92.1045C0.00327757 95.5457 -0.363358 99.3359 0.365344 102.989C1.09405 106.643 2.88488 109.993 5.5083 112.61C8.13171 115.227 11.4682 116.992 15.09 117.679C18.7118 118.366 22.4539 117.944 25.8367 116.466C29.2195 114.988 32.0888 112.522 34.0768 109.384C36.0648 106.245 37.081 102.578 36.995 98.8525C36.9364 96.314 36.368 93.8268 35.3378 91.5377C34.8817 90.5243 34.3351 89.5497 33.7022 88.6266C33.3971 88.1171 32.8437 87.7766 32.2118 87.7766C31.2502 87.7766 30.4706 88.565 30.4706 89.5376C30.4706 89.8947 30.5757 90.2271 30.7564 90.5046L30.7561 90.5048C30.7582 90.5078 30.7603 90.5108 30.7624 90.5137C30.7782 90.5378 30.7947 90.5614 30.8117 90.5847Z" fill="url(#paint0_linear_1383_7)"/>
<defs>
<linearGradient id="paint0_linear_1383_7" x1="28.86" y1="112.492" x2="27.9685" y2="83.1502" gradientUnits="userSpaceOnUse">
<stop stop-color="#0585C1"/>
<stop offset="1" stop-color="#0551C1"/>
</linearGradient>
</defs>
</svg>
