<svg width="256" height="155" viewBox="0 0 256 155" fill="none" xmlns="http://www.w3.org/2000/svg">
<path d="M2.82031 64.0977C2.13021 64.0977 1.58203 63.8776 1.17578 63.4375C0.769531 62.9948 0.566406 62.4141 0.566406 61.6953C0.566406 61.0573 0.697917 60.4805 0.960938 59.9648C1.22656 59.4466 1.58854 59.0404 2.04688 58.7461C2.50521 58.4518 3.01693 58.3047 3.58203 58.3047C4.25651 58.3047 4.79688 58.5247 5.20312 58.9648C5.60938 59.4023 5.8125 59.9753 5.8125 60.6836C5.8125 61.3112 5.6849 61.8893 5.42969 62.418C5.17448 62.944 4.81901 63.3555 4.36328 63.6523C3.91016 63.9492 3.39583 64.0977 2.82031 64.0977ZM2.84375 63.6328C3.3125 63.6328 3.72917 63.5104 4.09375 63.2656C4.46094 63.0208 4.75 62.6654 4.96094 62.1992C5.17188 61.7331 5.27734 61.2357 5.27734 60.707C5.27734 60.1081 5.12109 59.6354 4.80859 59.2891C4.49609 58.9401 4.07682 58.7656 3.55078 58.7656C3.08984 58.7656 2.66927 58.8932 2.28906 59.1484C1.91146 59.401 1.61849 59.7539 1.41016 60.207C1.20182 60.6602 1.09766 61.1562 1.09766 61.6953C1.09766 62.2969 1.2526 62.7708 1.5625 63.1172C1.875 63.4609 2.30208 63.6328 2.84375 63.6328ZM6.94531 60H7.44531C7.44531 60.0911 7.42839 60.2669 7.39453 60.5273C7.36068 60.7878 7.33333 60.9714 7.3125 61.0781H7.32812C7.76042 60.2943 8.26432 59.9023 8.83984 59.9023C9.20182 59.9023 9.48047 60.026 9.67578 60.2734C9.8737 60.5208 9.97266 60.8841 9.97266 61.3633C9.97266 61.8607 9.86458 62.3242 9.64844 62.7539C9.4349 63.181 9.14583 63.5117 8.78125 63.7461C8.41927 63.9805 8.01953 64.0977 7.58203 64.0977C7.29036 64.0977 7.00911 64.0469 6.73828 63.9453L6.33203 65.8672H5.83984L6.81641 61.25C6.84766 61.0885 6.8763 60.8646 6.90234 60.5781C6.93099 60.2891 6.94531 60.0964 6.94531 60ZM6.82422 63.5117C7.05339 63.6159 7.32422 63.668 7.63672 63.668C7.97786 63.668 8.28906 63.5677 8.57031 63.3672C8.85156 63.1667 9.07161 62.8932 9.23047 62.5469C9.38932 62.1979 9.46875 61.819 9.46875 61.4102C9.46875 60.6914 9.21354 60.332 8.70312 60.332C8.48958 60.332 8.26823 60.4284 8.03906 60.6211C7.8125 60.8138 7.60938 61.0729 7.42969 61.3984C7.2526 61.724 7.12891 62.0573 7.05859 62.3984L6.82422 63.5117ZM12.0195 64.0977C11.5768 64.0977 11.2292 63.9544 10.9766 63.668C10.7266 63.3789 10.6016 62.9857 10.6016 62.4883C10.6016 62.0143 10.6953 61.5781 10.8828 61.1797C11.0729 60.7786 11.3359 60.4661 11.6719 60.2422C12.0078 60.0156 12.3776 59.9023 12.7812 59.9023C13.1589 59.9023 13.4766 59.9909 13.7344 60.168L13.6172 60.6758C13.3828 60.4466 13.0859 60.332 12.7266 60.332C12.4219 60.332 12.1432 60.4284 11.8906 60.6211C11.6406 60.8138 11.4453 61.0755 11.3047 61.4062C11.1641 61.737 11.0938 62.0872 11.0938 62.457C11.0938 62.8424 11.1823 63.1406 11.3594 63.3516C11.5365 63.5625 11.7826 63.668 12.0977 63.668C12.418 63.668 12.763 63.5339 13.1328 63.2656L13.0156 63.8047C12.8073 63.9167 12.6315 63.9935 12.4883 64.0352C12.3451 64.0768 12.1888 64.0977 12.0195 64.0977ZM11.2422 65.3516C11.3542 65.375 11.4622 65.3867 11.5664 65.3867C12.0039 65.3867 12.2227 65.2669 12.2227 65.0273C12.2227 64.8138 12.0599 64.707 11.7344 64.707L11.5039 64.7227L11.6562 64H11.9805L11.8867 64.4336C12.1107 64.4336 12.2891 64.4805 12.4219 64.5742C12.5547 64.668 12.6211 64.8047 12.6211 64.9844C12.6211 65.2083 12.5299 65.3828 12.3477 65.5078C12.168 65.6354 11.8997 65.6992 11.543 65.6992C11.4388 65.6992 11.3177 65.6888 11.1797 65.668L11.2422 65.3516ZM16.4688 64C16.4792 63.7266 16.5234 63.3672 16.6016 62.9219H16.5859C16.3464 63.3438 16.1107 63.6458 15.8789 63.8281C15.6497 64.0078 15.3945 64.0977 15.1133 64.0977C14.7539 64.0977 14.474 63.9714 14.2734 63.7188C14.0755 63.4635 13.9766 63.1055 13.9766 62.6445C13.9766 62.1471 14.0833 61.6823 14.2969 61.25C14.513 60.8151 14.806 60.4818 15.1758 60.25C15.5482 60.0182 15.9635 59.9023 16.4219 59.9023C16.7578 59.9023 17.1771 59.9531 17.6797 60.0547L17.1445 62.6367C17.1081 62.8086 17.0703 63.043 17.0312 63.3398C16.9948 63.6367 16.9766 63.8568 16.9766 64H16.4688ZM17.1133 60.4141C16.8659 60.3594 16.6146 60.332 16.3594 60.332C16.0052 60.332 15.6862 60.4284 15.4023 60.6211C15.1185 60.8138 14.8932 61.0872 14.7266 61.4414C14.5625 61.7956 14.4805 62.1849 14.4805 62.6094C14.4805 63.3151 14.7305 63.668 15.2305 63.668C15.4414 63.668 15.6576 63.5768 15.8789 63.3945C16.1003 63.2096 16.3021 62.9492 16.4844 62.6133C16.6667 62.2773 16.7956 61.9388 16.8711 61.5977L17.1133 60.4141ZM15.0664 59.3047C15.1029 59.0312 15.1966 58.819 15.3477 58.668C15.4987 58.5169 15.6914 58.4414 15.9258 58.4414C16.0378 58.4414 16.1328 58.4648 16.2109 58.5117C16.2891 58.5586 16.3607 58.6107 16.4258 58.668C16.4935 58.7227 16.5612 58.7734 16.6289 58.8203C16.6966 58.8672 16.776 58.8906 16.8672 58.8906C16.9844 58.8906 17.0846 58.8464 17.168 58.7578C17.2513 58.6667 17.3073 58.5404 17.3359 58.3789H17.6641C17.6224 58.6471 17.5273 58.8581 17.3789 59.0117C17.2331 59.1654 17.0482 59.2422 16.8242 59.2422C16.7018 59.2422 16.6003 59.2201 16.5195 59.1758C16.4414 59.1289 16.3685 59.0781 16.3008 59.0234C16.2357 58.9661 16.1706 58.9154 16.1055 58.8711C16.0404 58.8242 15.9635 58.8008 15.875 58.8008C15.612 58.8008 15.4505 58.9688 15.3906 59.3047H15.0664ZM19.6758 64.0977C19.2305 64.0977 18.8789 63.9609 18.6211 63.6875C18.3633 63.4115 18.2344 63.0273 18.2344 62.5352C18.2344 62.0508 18.3255 61.6068 18.5078 61.2031C18.6927 60.7969 18.9505 60.4792 19.2812 60.25C19.6146 60.0182 19.9805 59.9023 20.3789 59.9023C20.8216 59.9023 21.1719 60.0417 21.4297 60.3203C21.6875 60.5964 21.8164 60.9766 21.8164 61.4609C21.8164 61.9531 21.724 62.4023 21.5391 62.8086C21.3568 63.2122 21.1016 63.5286 20.7734 63.7578C20.4479 63.9844 20.082 64.0977 19.6758 64.0977ZM19.7109 63.668C20.0052 63.668 20.276 63.5716 20.5234 63.3789C20.7708 63.1862 20.9635 62.9232 21.1016 62.5898C21.2422 62.2565 21.3125 61.8919 21.3125 61.4961C21.3125 61.1185 21.2253 60.8307 21.0508 60.6328C20.8789 60.4323 20.6419 60.332 20.3398 60.332C19.8945 60.332 19.5156 60.5417 19.2031 60.9609C18.8932 61.3776 18.7383 61.8919 18.7383 62.5039C18.7383 62.8685 18.8255 63.1536 19 63.3594C19.1745 63.5651 19.4115 63.668 19.7109 63.668ZM26.4805 58.9492L25.0508 59.3633L25.1523 58.8711L27.1016 58.3047L25.8984 64H25.4023L26.4805 58.9492Z" fill="#999999"/>
<path d="M3.82031 153.098C3.13021 153.098 2.58203 152.878 2.17578 152.438C1.76953 151.995 1.56641 151.414 1.56641 150.695C1.56641 150.057 1.69792 149.48 1.96094 148.965C2.22656 148.447 2.58854 148.04 3.04688 147.746C3.50521 147.452 4.01693 147.305 4.58203 147.305C5.25651 147.305 5.79688 147.525 6.20312 147.965C6.60938 148.402 6.8125 148.975 6.8125 149.684C6.8125 150.311 6.6849 150.889 6.42969 151.418C6.17448 151.944 5.81901 152.355 5.36328 152.652C4.91016 152.949 4.39583 153.098 3.82031 153.098ZM3.84375 152.633C4.3125 152.633 4.72917 152.51 5.09375 152.266C5.46094 152.021 5.75 151.665 5.96094 151.199C6.17188 150.733 6.27734 150.236 6.27734 149.707C6.27734 149.108 6.12109 148.635 5.80859 148.289C5.49609 147.94 5.07682 147.766 4.55078 147.766C4.08984 147.766 3.66927 147.893 3.28906 148.148C2.91146 148.401 2.61849 148.754 2.41016 149.207C2.20182 149.66 2.09766 150.156 2.09766 150.695C2.09766 151.297 2.2526 151.771 2.5625 152.117C2.875 152.461 3.30208 152.633 3.84375 152.633ZM7.94531 149H8.44531C8.44531 149.091 8.42839 149.267 8.39453 149.527C8.36068 149.788 8.33333 149.971 8.3125 150.078H8.32812C8.76042 149.294 9.26432 148.902 9.83984 148.902C10.2018 148.902 10.4805 149.026 10.6758 149.273C10.8737 149.521 10.9727 149.884 10.9727 150.363C10.9727 150.861 10.8646 151.324 10.6484 151.754C10.4349 152.181 10.1458 152.512 9.78125 152.746C9.41927 152.98 9.01953 153.098 8.58203 153.098C8.29036 153.098 8.00911 153.047 7.73828 152.945L7.33203 154.867H6.83984L7.81641 150.25C7.84766 150.089 7.8763 149.865 7.90234 149.578C7.93099 149.289 7.94531 149.096 7.94531 149ZM7.82422 152.512C8.05339 152.616 8.32422 152.668 8.63672 152.668C8.97786 152.668 9.28906 152.568 9.57031 152.367C9.85156 152.167 10.0716 151.893 10.2305 151.547C10.3893 151.198 10.4688 150.819 10.4688 150.41C10.4688 149.691 10.2135 149.332 9.70312 149.332C9.48958 149.332 9.26823 149.428 9.03906 149.621C8.8125 149.814 8.60938 150.073 8.42969 150.398C8.2526 150.724 8.12891 151.057 8.05859 151.398L7.82422 152.512ZM13.0195 153.098C12.5768 153.098 12.2292 152.954 11.9766 152.668C11.7266 152.379 11.6016 151.986 11.6016 151.488C11.6016 151.014 11.6953 150.578 11.8828 150.18C12.0729 149.779 12.3359 149.466 12.6719 149.242C13.0078 149.016 13.3776 148.902 13.7812 148.902C14.1589 148.902 14.4766 148.991 14.7344 149.168L14.6172 149.676C14.3828 149.447 14.0859 149.332 13.7266 149.332C13.4219 149.332 13.1432 149.428 12.8906 149.621C12.6406 149.814 12.4453 150.076 12.3047 150.406C12.1641 150.737 12.0938 151.087 12.0938 151.457C12.0938 151.842 12.1823 152.141 12.3594 152.352C12.5365 152.562 12.7826 152.668 13.0977 152.668C13.418 152.668 13.763 152.534 14.1328 152.266L14.0156 152.805C13.8073 152.917 13.6315 152.993 13.4883 153.035C13.3451 153.077 13.1888 153.098 13.0195 153.098ZM12.2422 154.352C12.3542 154.375 12.4622 154.387 12.5664 154.387C13.0039 154.387 13.2227 154.267 13.2227 154.027C13.2227 153.814 13.0599 153.707 12.7344 153.707L12.5039 153.723L12.6562 153H12.9805L12.8867 153.434C13.1107 153.434 13.2891 153.48 13.4219 153.574C13.5547 153.668 13.6211 153.805 13.6211 153.984C13.6211 154.208 13.5299 154.383 13.3477 154.508C13.168 154.635 12.8997 154.699 12.543 154.699C12.4388 154.699 12.3177 154.689 12.1797 154.668L12.2422 154.352ZM17.4688 153C17.4792 152.727 17.5234 152.367 17.6016 151.922H17.5859C17.3464 152.344 17.1107 152.646 16.8789 152.828C16.6497 153.008 16.3945 153.098 16.1133 153.098C15.7539 153.098 15.474 152.971 15.2734 152.719C15.0755 152.464 14.9766 152.105 14.9766 151.645C14.9766 151.147 15.0833 150.682 15.2969 150.25C15.513 149.815 15.806 149.482 16.1758 149.25C16.5482 149.018 16.9635 148.902 17.4219 148.902C17.7578 148.902 18.1771 148.953 18.6797 149.055L18.1445 151.637C18.1081 151.809 18.0703 152.043 18.0312 152.34C17.9948 152.637 17.9766 152.857 17.9766 153H17.4688ZM18.1133 149.414C17.8659 149.359 17.6146 149.332 17.3594 149.332C17.0052 149.332 16.6862 149.428 16.4023 149.621C16.1185 149.814 15.8932 150.087 15.7266 150.441C15.5625 150.796 15.4805 151.185 15.4805 151.609C15.4805 152.315 15.7305 152.668 16.2305 152.668C16.4414 152.668 16.6576 152.577 16.8789 152.395C17.1003 152.21 17.3021 151.949 17.4844 151.613C17.6667 151.277 17.7956 150.939 17.8711 150.598L18.1133 149.414ZM16.0664 148.305C16.1029 148.031 16.1966 147.819 16.3477 147.668C16.4987 147.517 16.6914 147.441 16.9258 147.441C17.0378 147.441 17.1328 147.465 17.2109 147.512C17.2891 147.559 17.3607 147.611 17.4258 147.668C17.4935 147.723 17.5612 147.773 17.6289 147.82C17.6966 147.867 17.776 147.891 17.8672 147.891C17.9844 147.891 18.0846 147.846 18.168 147.758C18.2513 147.667 18.3073 147.54 18.3359 147.379H18.6641C18.6224 147.647 18.5273 147.858 18.3789 148.012C18.2331 148.165 18.0482 148.242 17.8242 148.242C17.7018 148.242 17.6003 148.22 17.5195 148.176C17.4414 148.129 17.3685 148.078 17.3008 148.023C17.2357 147.966 17.1706 147.915 17.1055 147.871C17.0404 147.824 16.9635 147.801 16.875 147.801C16.612 147.801 16.4505 147.969 16.3906 148.305H16.0664ZM20.6758 153.098C20.2305 153.098 19.8789 152.961 19.6211 152.688C19.3633 152.411 19.2344 152.027 19.2344 151.535C19.2344 151.051 19.3255 150.607 19.5078 150.203C19.6927 149.797 19.9505 149.479 20.2812 149.25C20.6146 149.018 20.9805 148.902 21.3789 148.902C21.8216 148.902 22.1719 149.042 22.4297 149.32C22.6875 149.596 22.8164 149.977 22.8164 150.461C22.8164 150.953 22.724 151.402 22.5391 151.809C22.3568 152.212 22.1016 152.529 21.7734 152.758C21.4479 152.984 21.082 153.098 20.6758 153.098ZM20.7109 152.668C21.0052 152.668 21.276 152.572 21.5234 152.379C21.7708 152.186 21.9635 151.923 22.1016 151.59C22.2422 151.257 22.3125 150.892 22.3125 150.496C22.3125 150.118 22.2253 149.831 22.0508 149.633C21.8789 149.432 21.6419 149.332 21.3398 149.332C20.8945 149.332 20.5156 149.542 20.2031 149.961C19.8932 150.378 19.7383 150.892 19.7383 151.504C19.7383 151.868 19.8255 152.154 20 152.359C20.1745 152.565 20.4115 152.668 20.7109 152.668ZM27.4805 147.949L26.0508 148.363L26.1523 147.871L28.1016 147.305L26.8984 153H26.4023L27.4805 147.949Z" fill="#999999"/>
<path d="M62.8203 64.0977C62.1302 64.0977 61.582 63.8776 61.1758 63.4375C60.7695 62.9948 60.5664 62.4141 60.5664 61.6953C60.5664 61.0573 60.6979 60.4805 60.9609 59.9648C61.2266 59.4466 61.5885 59.0404 62.0469 58.7461C62.5052 58.4518 63.0169 58.3047 63.582 58.3047C64.2565 58.3047 64.7969 58.5247 65.2031 58.9648C65.6094 59.4023 65.8125 59.9753 65.8125 60.6836C65.8125 61.3112 65.6849 61.8893 65.4297 62.418C65.1745 62.944 64.819 63.3555 64.3633 63.6523C63.9102 63.9492 63.3958 64.0977 62.8203 64.0977ZM62.8438 63.6328C63.3125 63.6328 63.7292 63.5104 64.0938 63.2656C64.4609 63.0208 64.75 62.6654 64.9609 62.1992C65.1719 61.7331 65.2773 61.2357 65.2773 60.707C65.2773 60.1081 65.1211 59.6354 64.8086 59.2891C64.4961 58.9401 64.0768 58.7656 63.5508 58.7656C63.0898 58.7656 62.6693 58.8932 62.2891 59.1484C61.9115 59.401 61.6185 59.7539 61.4102 60.207C61.2018 60.6602 61.0977 61.1562 61.0977 61.6953C61.0977 62.2969 61.2526 62.7708 61.5625 63.1172C61.875 63.4609 62.3021 63.6328 62.8438 63.6328ZM66.9453 60H67.4453C67.4453 60.0911 67.4284 60.2669 67.3945 60.5273C67.3607 60.7878 67.3333 60.9714 67.3125 61.0781H67.3281C67.7604 60.2943 68.2643 59.9023 68.8398 59.9023C69.2018 59.9023 69.4805 60.026 69.6758 60.2734C69.8737 60.5208 69.9727 60.8841 69.9727 61.3633C69.9727 61.8607 69.8646 62.3242 69.6484 62.7539C69.4349 63.181 69.1458 63.5117 68.7812 63.7461C68.4193 63.9805 68.0195 64.0977 67.582 64.0977C67.2904 64.0977 67.0091 64.0469 66.7383 63.9453L66.332 65.8672H65.8398L66.8164 61.25C66.8477 61.0885 66.8763 60.8646 66.9023 60.5781C66.931 60.2891 66.9453 60.0964 66.9453 60ZM66.8242 63.5117C67.0534 63.6159 67.3242 63.668 67.6367 63.668C67.9779 63.668 68.2891 63.5677 68.5703 63.3672C68.8516 63.1667 69.0716 62.8932 69.2305 62.5469C69.3893 62.1979 69.4688 61.819 69.4688 61.4102C69.4688 60.6914 69.2135 60.332 68.7031 60.332C68.4896 60.332 68.2682 60.4284 68.0391 60.6211C67.8125 60.8138 67.6094 61.0729 67.4297 61.3984C67.2526 61.724 67.1289 62.0573 67.0586 62.3984L66.8242 63.5117ZM72.0195 64.0977C71.5768 64.0977 71.2292 63.9544 70.9766 63.668C70.7266 63.3789 70.6016 62.9857 70.6016 62.4883C70.6016 62.0143 70.6953 61.5781 70.8828 61.1797C71.0729 60.7786 71.3359 60.4661 71.6719 60.2422C72.0078 60.0156 72.3776 59.9023 72.7812 59.9023C73.1589 59.9023 73.4766 59.9909 73.7344 60.168L73.6172 60.6758C73.3828 60.4466 73.0859 60.332 72.7266 60.332C72.4219 60.332 72.1432 60.4284 71.8906 60.6211C71.6406 60.8138 71.4453 61.0755 71.3047 61.4062C71.1641 61.737 71.0938 62.0872 71.0938 62.457C71.0938 62.8424 71.1823 63.1406 71.3594 63.3516C71.5365 63.5625 71.7826 63.668 72.0977 63.668C72.418 63.668 72.763 63.5339 73.1328 63.2656L73.0156 63.8047C72.8073 63.9167 72.6315 63.9935 72.4883 64.0352C72.3451 64.0768 72.1888 64.0977 72.0195 64.0977ZM71.2422 65.3516C71.3542 65.375 71.4622 65.3867 71.5664 65.3867C72.0039 65.3867 72.2227 65.2669 72.2227 65.0273C72.2227 64.8138 72.0599 64.707 71.7344 64.707L71.5039 64.7227L71.6562 64H71.9805L71.8867 64.4336C72.1107 64.4336 72.2891 64.4805 72.4219 64.5742C72.5547 64.668 72.6211 64.8047 72.6211 64.9844C72.6211 65.2083 72.5299 65.3828 72.3477 65.5078C72.168 65.6354 71.8997 65.6992 71.543 65.6992C71.4388 65.6992 71.3177 65.6888 71.1797 65.668L71.2422 65.3516ZM76.4688 64C76.4792 63.7266 76.5234 63.3672 76.6016 62.9219H76.5859C76.3464 63.3438 76.1107 63.6458 75.8789 63.8281C75.6497 64.0078 75.3945 64.0977 75.1133 64.0977C74.7539 64.0977 74.474 63.9714 74.2734 63.7188C74.0755 63.4635 73.9766 63.1055 73.9766 62.6445C73.9766 62.1471 74.0833 61.6823 74.2969 61.25C74.513 60.8151 74.806 60.4818 75.1758 60.25C75.5482 60.0182 75.9635 59.9023 76.4219 59.9023C76.7578 59.9023 77.1771 59.9531 77.6797 60.0547L77.1445 62.6367C77.1081 62.8086 77.0703 63.043 77.0312 63.3398C76.9948 63.6367 76.9766 63.8568 76.9766 64H76.4688ZM77.1133 60.4141C76.8659 60.3594 76.6146 60.332 76.3594 60.332C76.0052 60.332 75.6862 60.4284 75.4023 60.6211C75.1185 60.8138 74.8932 61.0872 74.7266 61.4414C74.5625 61.7956 74.4805 62.1849 74.4805 62.6094C74.4805 63.3151 74.7305 63.668 75.2305 63.668C75.4414 63.668 75.6576 63.5768 75.8789 63.3945C76.1003 63.2096 76.3021 62.9492 76.4844 62.6133C76.6667 62.2773 76.7956 61.9388 76.8711 61.5977L77.1133 60.4141ZM75.0664 59.3047C75.1029 59.0312 75.1966 58.819 75.3477 58.668C75.4987 58.5169 75.6914 58.4414 75.9258 58.4414C76.0378 58.4414 76.1328 58.4648 76.2109 58.5117C76.2891 58.5586 76.3607 58.6107 76.4258 58.668C76.4935 58.7227 76.5612 58.7734 76.6289 58.8203C76.6966 58.8672 76.776 58.8906 76.8672 58.8906C76.9844 58.8906 77.0846 58.8464 77.168 58.7578C77.2513 58.6667 77.3073 58.5404 77.3359 58.3789H77.6641C77.6224 58.6471 77.5273 58.8581 77.3789 59.0117C77.2331 59.1654 77.0482 59.2422 76.8242 59.2422C76.7018 59.2422 76.6003 59.2201 76.5195 59.1758C76.4414 59.1289 76.3685 59.0781 76.3008 59.0234C76.2357 58.9661 76.1706 58.9154 76.1055 58.8711C76.0404 58.8242 75.9635 58.8008 75.875 58.8008C75.612 58.8008 75.4505 58.9688 75.3906 59.3047H75.0664ZM79.6758 64.0977C79.2305 64.0977 78.8789 63.9609 78.6211 63.6875C78.3633 63.4115 78.2344 63.0273 78.2344 62.5352C78.2344 62.0508 78.3255 61.6068 78.5078 61.2031C78.6927 60.7969 78.9505 60.4792 79.2812 60.25C79.6146 60.0182 79.9805 59.9023 80.3789 59.9023C80.8216 59.9023 81.1719 60.0417 81.4297 60.3203C81.6875 60.5964 81.8164 60.9766 81.8164 61.4609C81.8164 61.9531 81.724 62.4023 81.5391 62.8086C81.3568 63.2122 81.1016 63.5286 80.7734 63.7578C80.4479 63.9844 80.082 64.0977 79.6758 64.0977ZM79.7109 63.668C80.0052 63.668 80.276 63.5716 80.5234 63.3789C80.7708 63.1862 80.9635 62.9232 81.1016 62.5898C81.2422 62.2565 81.3125 61.8919 81.3125 61.4961C81.3125 61.1185 81.2253 60.8307 81.0508 60.6328C80.8789 60.4323 80.6419 60.332 80.3398 60.332C79.8945 60.332 79.5156 60.5417 79.2031 60.9609C78.8932 61.3776 78.7383 61.8919 78.7383 62.5039C78.7383 62.8685 78.8255 63.1536 79 63.3594C79.1745 63.5651 79.4115 63.668 79.7109 63.668ZM87.6641 59.5977C87.6641 59.3346 87.5794 59.125 87.4102 58.9688C87.2435 58.8099 87.0117 58.7305 86.7148 58.7305C86.2799 58.7305 85.8112 58.9115 85.3086 59.2734L85.4297 58.7109C85.8281 58.4401 86.2865 58.3047 86.8047 58.3047C87.224 58.3047 87.5573 58.4154 87.8047 58.6367C88.0521 58.8555 88.1758 59.1549 88.1758 59.5352C88.1758 59.8555 88.1263 60.1263 88.0273 60.3477C87.931 60.569 87.7695 60.7852 87.543 60.9961C87.3164 61.207 86.9518 61.4714 86.4492 61.7891C86.0378 62.0443 85.7083 62.263 85.4609 62.4453C85.2161 62.625 85.0352 62.7943 84.918 62.9531C84.8008 63.112 84.7148 63.3138 84.6602 63.5586H87.4375L87.3438 64H84.0508L84.1055 63.7305C84.168 63.444 84.2396 63.2214 84.3203 63.0625C84.3984 62.9036 84.5026 62.7526 84.6328 62.6094C84.7656 62.4661 84.9518 62.3047 85.1914 62.125C85.4336 61.9453 85.7409 61.7396 86.1133 61.5078C86.5664 61.2214 86.8932 60.987 87.0938 60.8047C87.2969 60.6224 87.4427 60.4388 87.5312 60.2539C87.6198 60.0664 87.6641 59.8477 87.6641 59.5977Z" fill="#999999"/>
<path d="M81.8203 153.098C81.1302 153.098 80.582 152.878 80.1758 152.438C79.7695 151.995 79.5664 151.414 79.5664 150.695C79.5664 150.057 79.6979 149.48 79.9609 148.965C80.2266 148.447 80.5885 148.04 81.0469 147.746C81.5052 147.452 82.0169 147.305 82.582 147.305C83.2565 147.305 83.7969 147.525 84.2031 147.965C84.6094 148.402 84.8125 148.975 84.8125 149.684C84.8125 150.311 84.6849 150.889 84.4297 151.418C84.1745 151.944 83.819 152.355 83.3633 152.652C82.9102 152.949 82.3958 153.098 81.8203 153.098ZM81.8438 152.633C82.3125 152.633 82.7292 152.51 83.0938 152.266C83.4609 152.021 83.75 151.665 83.9609 151.199C84.1719 150.733 84.2773 150.236 84.2773 149.707C84.2773 149.108 84.1211 148.635 83.8086 148.289C83.4961 147.94 83.0768 147.766 82.5508 147.766C82.0898 147.766 81.6693 147.893 81.2891 148.148C80.9115 148.401 80.6185 148.754 80.4102 149.207C80.2018 149.66 80.0977 150.156 80.0977 150.695C80.0977 151.297 80.2526 151.771 80.5625 152.117C80.875 152.461 81.3021 152.633 81.8438 152.633ZM85.9453 149H86.4453C86.4453 149.091 86.4284 149.267 86.3945 149.527C86.3607 149.788 86.3333 149.971 86.3125 150.078H86.3281C86.7604 149.294 87.2643 148.902 87.8398 148.902C88.2018 148.902 88.4805 149.026 88.6758 149.273C88.8737 149.521 88.9727 149.884 88.9727 150.363C88.9727 150.861 88.8646 151.324 88.6484 151.754C88.4349 152.181 88.1458 152.512 87.7812 152.746C87.4193 152.98 87.0195 153.098 86.582 153.098C86.2904 153.098 86.0091 153.047 85.7383 152.945L85.332 154.867H84.8398L85.8164 150.25C85.8477 150.089 85.8763 149.865 85.9023 149.578C85.931 149.289 85.9453 149.096 85.9453 149ZM85.8242 152.512C86.0534 152.616 86.3242 152.668 86.6367 152.668C86.9779 152.668 87.2891 152.568 87.5703 152.367C87.8516 152.167 88.0716 151.893 88.2305 151.547C88.3893 151.198 88.4688 150.819 88.4688 150.41C88.4688 149.691 88.2135 149.332 87.7031 149.332C87.4896 149.332 87.2682 149.428 87.0391 149.621C86.8125 149.814 86.6094 150.073 86.4297 150.398C86.2526 150.724 86.1289 151.057 86.0586 151.398L85.8242 152.512ZM91.0195 153.098C90.5768 153.098 90.2292 152.954 89.9766 152.668C89.7266 152.379 89.6016 151.986 89.6016 151.488C89.6016 151.014 89.6953 150.578 89.8828 150.18C90.0729 149.779 90.3359 149.466 90.6719 149.242C91.0078 149.016 91.3776 148.902 91.7812 148.902C92.1589 148.902 92.4766 148.991 92.7344 149.168L92.6172 149.676C92.3828 149.447 92.0859 149.332 91.7266 149.332C91.4219 149.332 91.1432 149.428 90.8906 149.621C90.6406 149.814 90.4453 150.076 90.3047 150.406C90.1641 150.737 90.0938 151.087 90.0938 151.457C90.0938 151.842 90.1823 152.141 90.3594 152.352C90.5365 152.562 90.7826 152.668 91.0977 152.668C91.418 152.668 91.763 152.534 92.1328 152.266L92.0156 152.805C91.8073 152.917 91.6315 152.993 91.4883 153.035C91.3451 153.077 91.1888 153.098 91.0195 153.098ZM90.2422 154.352C90.3542 154.375 90.4622 154.387 90.5664 154.387C91.0039 154.387 91.2227 154.267 91.2227 154.027C91.2227 153.814 91.0599 153.707 90.7344 153.707L90.5039 153.723L90.6562 153H90.9805L90.8867 153.434C91.1107 153.434 91.2891 153.48 91.4219 153.574C91.5547 153.668 91.6211 153.805 91.6211 153.984C91.6211 154.208 91.5299 154.383 91.3477 154.508C91.168 154.635 90.8997 154.699 90.543 154.699C90.4388 154.699 90.3177 154.689 90.1797 154.668L90.2422 154.352ZM95.4688 153C95.4792 152.727 95.5234 152.367 95.6016 151.922H95.5859C95.3464 152.344 95.1107 152.646 94.8789 152.828C94.6497 153.008 94.3945 153.098 94.1133 153.098C93.7539 153.098 93.474 152.971 93.2734 152.719C93.0755 152.464 92.9766 152.105 92.9766 151.645C92.9766 151.147 93.0833 150.682 93.2969 150.25C93.513 149.815 93.806 149.482 94.1758 149.25C94.5482 149.018 94.9635 148.902 95.4219 148.902C95.7578 148.902 96.1771 148.953 96.6797 149.055L96.1445 151.637C96.1081 151.809 96.0703 152.043 96.0312 152.34C95.9948 152.637 95.9766 152.857 95.9766 153H95.4688ZM96.1133 149.414C95.8659 149.359 95.6146 149.332 95.3594 149.332C95.0052 149.332 94.6862 149.428 94.4023 149.621C94.1185 149.814 93.8932 150.087 93.7266 150.441C93.5625 150.796 93.4805 151.185 93.4805 151.609C93.4805 152.315 93.7305 152.668 94.2305 152.668C94.4414 152.668 94.6576 152.577 94.8789 152.395C95.1003 152.21 95.3021 151.949 95.4844 151.613C95.6667 151.277 95.7956 150.939 95.8711 150.598L96.1133 149.414ZM94.0664 148.305C94.1029 148.031 94.1966 147.819 94.3477 147.668C94.4987 147.517 94.6914 147.441 94.9258 147.441C95.0378 147.441 95.1328 147.465 95.2109 147.512C95.2891 147.559 95.3607 147.611 95.4258 147.668C95.4935 147.723 95.5612 147.773 95.6289 147.82C95.6966 147.867 95.776 147.891 95.8672 147.891C95.9844 147.891 96.0846 147.846 96.168 147.758C96.2513 147.667 96.3073 147.54 96.3359 147.379H96.6641C96.6224 147.647 96.5273 147.858 96.3789 148.012C96.2331 148.165 96.0482 148.242 95.8242 148.242C95.7018 148.242 95.6003 148.22 95.5195 148.176C95.4414 148.129 95.3685 148.078 95.3008 148.023C95.2357 147.966 95.1706 147.915 95.1055 147.871C95.0404 147.824 94.9635 147.801 94.875 147.801C94.612 147.801 94.4505 147.969 94.3906 148.305H94.0664ZM98.6758 153.098C98.2305 153.098 97.8789 152.961 97.6211 152.688C97.3633 152.411 97.2344 152.027 97.2344 151.535C97.2344 151.051 97.3255 150.607 97.5078 150.203C97.6927 149.797 97.9505 149.479 98.2812 149.25C98.6146 149.018 98.9805 148.902 99.3789 148.902C99.8216 148.902 100.172 149.042 100.43 149.32C100.688 149.596 100.816 149.977 100.816 150.461C100.816 150.953 100.724 151.402 100.539 151.809C100.357 152.212 100.102 152.529 99.7734 152.758C99.4479 152.984 99.082 153.098 98.6758 153.098ZM98.7109 152.668C99.0052 152.668 99.276 152.572 99.5234 152.379C99.7708 152.186 99.9635 151.923 100.102 151.59C100.242 151.257 100.312 150.892 100.312 150.496C100.312 150.118 100.225 149.831 100.051 149.633C99.8789 149.432 99.6419 149.332 99.3398 149.332C98.8945 149.332 98.5156 149.542 98.2031 149.961C97.8932 150.378 97.7383 150.892 97.7383 151.504C97.7383 151.868 97.8255 152.154 98 152.359C98.1745 152.565 98.4115 152.668 98.7109 152.668ZM106.664 148.598C106.664 148.335 106.579 148.125 106.41 147.969C106.243 147.81 106.012 147.73 105.715 147.73C105.28 147.73 104.811 147.911 104.309 148.273L104.43 147.711C104.828 147.44 105.286 147.305 105.805 147.305C106.224 147.305 106.557 147.415 106.805 147.637C107.052 147.855 107.176 148.155 107.176 148.535C107.176 148.855 107.126 149.126 107.027 149.348C106.931 149.569 106.77 149.785 106.543 149.996C106.316 150.207 105.952 150.471 105.449 150.789C105.038 151.044 104.708 151.263 104.461 151.445C104.216 151.625 104.035 151.794 103.918 151.953C103.801 152.112 103.715 152.314 103.66 152.559H106.438L106.344 153H103.051L103.105 152.73C103.168 152.444 103.24 152.221 103.32 152.062C103.398 151.904 103.503 151.753 103.633 151.609C103.766 151.466 103.952 151.305 104.191 151.125C104.434 150.945 104.741 150.74 105.113 150.508C105.566 150.221 105.893 149.987 106.094 149.805C106.297 149.622 106.443 149.439 106.531 149.254C106.62 149.066 106.664 148.848 106.664 148.598Z" fill="#999999"/>
<path d="M149.82 62.0977C149.13 62.0977 148.582 61.8776 148.176 61.4375C147.77 60.9948 147.566 60.4141 147.566 59.6953C147.566 59.0573 147.698 58.4805 147.961 57.9648C148.227 57.4466 148.589 57.0404 149.047 56.7461C149.505 56.4518 150.017 56.3047 150.582 56.3047C151.257 56.3047 151.797 56.5247 152.203 56.9648C152.609 57.4023 152.812 57.9753 152.812 58.6836C152.812 59.3112 152.685 59.8893 152.43 60.418C152.174 60.944 151.819 61.3555 151.363 61.6523C150.91 61.9492 150.396 62.0977 149.82 62.0977ZM149.844 61.6328C150.312 61.6328 150.729 61.5104 151.094 61.2656C151.461 61.0208 151.75 60.6654 151.961 60.1992C152.172 59.7331 152.277 59.2357 152.277 58.707C152.277 58.1081 152.121 57.6354 151.809 57.2891C151.496 56.9401 151.077 56.7656 150.551 56.7656C150.09 56.7656 149.669 56.8932 149.289 57.1484C148.911 57.401 148.618 57.7539 148.41 58.207C148.202 58.6602 148.098 59.1562 148.098 59.6953C148.098 60.2969 148.253 60.7708 148.562 61.1172C148.875 61.4609 149.302 61.6328 149.844 61.6328ZM153.945 58H154.445C154.445 58.0911 154.428 58.2669 154.395 58.5273C154.361 58.7878 154.333 58.9714 154.312 59.0781H154.328C154.76 58.2943 155.264 57.9023 155.84 57.9023C156.202 57.9023 156.48 58.026 156.676 58.2734C156.874 58.5208 156.973 58.8841 156.973 59.3633C156.973 59.8607 156.865 60.3242 156.648 60.7539C156.435 61.181 156.146 61.5117 155.781 61.7461C155.419 61.9805 155.02 62.0977 154.582 62.0977C154.29 62.0977 154.009 62.0469 153.738 61.9453L153.332 63.8672H152.84L153.816 59.25C153.848 59.0885 153.876 58.8646 153.902 58.5781C153.931 58.2891 153.945 58.0964 153.945 58ZM153.824 61.5117C154.053 61.6159 154.324 61.668 154.637 61.668C154.978 61.668 155.289 61.5677 155.57 61.3672C155.852 61.1667 156.072 60.8932 156.23 60.5469C156.389 60.1979 156.469 59.819 156.469 59.4102C156.469 58.6914 156.214 58.332 155.703 58.332C155.49 58.332 155.268 58.4284 155.039 58.6211C154.812 58.8138 154.609 59.0729 154.43 59.3984C154.253 59.724 154.129 60.0573 154.059 60.3984L153.824 61.5117ZM159.02 62.0977C158.577 62.0977 158.229 61.9544 157.977 61.668C157.727 61.3789 157.602 60.9857 157.602 60.4883C157.602 60.0143 157.695 59.5781 157.883 59.1797C158.073 58.7786 158.336 58.4661 158.672 58.2422C159.008 58.0156 159.378 57.9023 159.781 57.9023C160.159 57.9023 160.477 57.9909 160.734 58.168L160.617 58.6758C160.383 58.4466 160.086 58.332 159.727 58.332C159.422 58.332 159.143 58.4284 158.891 58.6211C158.641 58.8138 158.445 59.0755 158.305 59.4062C158.164 59.737 158.094 60.0872 158.094 60.457C158.094 60.8424 158.182 61.1406 158.359 61.3516C158.536 61.5625 158.783 61.668 159.098 61.668C159.418 61.668 159.763 61.5339 160.133 61.2656L160.016 61.8047C159.807 61.9167 159.632 61.9935 159.488 62.0352C159.345 62.0768 159.189 62.0977 159.02 62.0977ZM158.242 63.3516C158.354 63.375 158.462 63.3867 158.566 63.3867C159.004 63.3867 159.223 63.2669 159.223 63.0273C159.223 62.8138 159.06 62.707 158.734 62.707L158.504 62.7227L158.656 62H158.98L158.887 62.4336C159.111 62.4336 159.289 62.4805 159.422 62.5742C159.555 62.668 159.621 62.8047 159.621 62.9844C159.621 63.2083 159.53 63.3828 159.348 63.5078C159.168 63.6354 158.9 63.6992 158.543 63.6992C158.439 63.6992 158.318 63.6888 158.18 63.668L158.242 63.3516ZM163.469 62C163.479 61.7266 163.523 61.3672 163.602 60.9219H163.586C163.346 61.3438 163.111 61.6458 162.879 61.8281C162.65 62.0078 162.395 62.0977 162.113 62.0977C161.754 62.0977 161.474 61.9714 161.273 61.7188C161.076 61.4635 160.977 61.1055 160.977 60.6445C160.977 60.1471 161.083 59.6823 161.297 59.25C161.513 58.8151 161.806 58.4818 162.176 58.25C162.548 58.0182 162.964 57.9023 163.422 57.9023C163.758 57.9023 164.177 57.9531 164.68 58.0547L164.145 60.6367C164.108 60.8086 164.07 61.043 164.031 61.3398C163.995 61.6367 163.977 61.8568 163.977 62H163.469ZM164.113 58.4141C163.866 58.3594 163.615 58.332 163.359 58.332C163.005 58.332 162.686 58.4284 162.402 58.6211C162.118 58.8138 161.893 59.0872 161.727 59.4414C161.562 59.7956 161.48 60.1849 161.48 60.6094C161.48 61.3151 161.73 61.668 162.23 61.668C162.441 61.668 162.658 61.5768 162.879 61.3945C163.1 61.2096 163.302 60.9492 163.484 60.6133C163.667 60.2773 163.796 59.9388 163.871 59.5977L164.113 58.4141ZM162.066 57.3047C162.103 57.0312 162.197 56.819 162.348 56.668C162.499 56.5169 162.691 56.4414 162.926 56.4414C163.038 56.4414 163.133 56.4648 163.211 56.5117C163.289 56.5586 163.361 56.6107 163.426 56.668C163.493 56.7227 163.561 56.7734 163.629 56.8203C163.697 56.8672 163.776 56.8906 163.867 56.8906C163.984 56.8906 164.085 56.8464 164.168 56.7578C164.251 56.6667 164.307 56.5404 164.336 56.3789H164.664C164.622 56.6471 164.527 56.8581 164.379 57.0117C164.233 57.1654 164.048 57.2422 163.824 57.2422C163.702 57.2422 163.6 57.2201 163.52 57.1758C163.441 57.1289 163.368 57.0781 163.301 57.0234C163.236 56.9661 163.171 56.9154 163.105 56.8711C163.04 56.8242 162.964 56.8008 162.875 56.8008C162.612 56.8008 162.451 56.9688 162.391 57.3047H162.066ZM166.676 62.0977C166.23 62.0977 165.879 61.9609 165.621 61.6875C165.363 61.4115 165.234 61.0273 165.234 60.5352C165.234 60.0508 165.326 59.6068 165.508 59.2031C165.693 58.7969 165.951 58.4792 166.281 58.25C166.615 58.0182 166.98 57.9023 167.379 57.9023C167.822 57.9023 168.172 58.0417 168.43 58.3203C168.688 58.5964 168.816 58.9766 168.816 59.4609C168.816 59.9531 168.724 60.4023 168.539 60.8086C168.357 61.2122 168.102 61.5286 167.773 61.7578C167.448 61.9844 167.082 62.0977 166.676 62.0977ZM166.711 61.668C167.005 61.668 167.276 61.5716 167.523 61.3789C167.771 61.1862 167.964 60.9232 168.102 60.5898C168.242 60.2565 168.312 59.8919 168.312 59.4961C168.312 59.1185 168.225 58.8307 168.051 58.6328C167.879 58.4323 167.642 58.332 167.34 58.332C166.895 58.332 166.516 58.5417 166.203 58.9609C165.893 59.3776 165.738 59.8919 165.738 60.5039C165.738 60.8685 165.826 61.1536 166 61.3594C166.174 61.5651 166.411 61.668 166.711 61.668ZM171.234 61.2969C171.401 61.4089 171.603 61.4987 171.84 61.5664C172.077 61.6341 172.296 61.668 172.496 61.668C172.973 61.668 173.344 61.5586 173.609 61.3398C173.878 61.1211 174.012 60.8073 174.012 60.3984C174.012 60.0495 173.896 59.7839 173.664 59.6016C173.432 59.4167 173.082 59.3242 172.613 59.3242H172.199L172.301 58.8789H172.711C173.292 58.8789 173.729 58.7695 174.023 58.5508C174.32 58.3294 174.469 58.0169 174.469 57.6133C174.469 57.3398 174.383 57.125 174.211 56.9688C174.042 56.8099 173.811 56.7305 173.52 56.7305C173.126 56.7305 172.724 56.8438 172.312 57.0703L172.41 56.5625C172.783 56.3906 173.176 56.3047 173.59 56.3047C174.017 56.3047 174.354 56.418 174.602 56.6445C174.852 56.8685 174.977 57.1693 174.977 57.5469C174.977 57.9557 174.848 58.2969 174.59 58.5703C174.335 58.8438 173.974 59.0234 173.508 59.1094V59.125C173.807 59.1771 174.049 59.3164 174.234 59.543C174.419 59.7669 174.512 60.0404 174.512 60.3633C174.512 60.8893 174.327 61.3099 173.957 61.625C173.59 61.9401 173.091 62.0977 172.461 62.0977C172.237 62.0977 172 62.0677 171.75 62.0078C171.503 61.9505 171.293 61.8776 171.121 61.7891L171.234 61.2969Z" fill="#999999"/>
<path d="M139.82 153.098C139.13 153.098 138.582 152.878 138.176 152.438C137.77 151.995 137.566 151.414 137.566 150.695C137.566 150.057 137.698 149.48 137.961 148.965C138.227 148.447 138.589 148.04 139.047 147.746C139.505 147.452 140.017 147.305 140.582 147.305C141.257 147.305 141.797 147.525 142.203 147.965C142.609 148.402 142.812 148.975 142.812 149.684C142.812 150.311 142.685 150.889 142.43 151.418C142.174 151.944 141.819 152.355 141.363 152.652C140.91 152.949 140.396 153.098 139.82 153.098ZM139.844 152.633C140.312 152.633 140.729 152.51 141.094 152.266C141.461 152.021 141.75 151.665 141.961 151.199C142.172 150.733 142.277 150.236 142.277 149.707C142.277 149.108 142.121 148.635 141.809 148.289C141.496 147.94 141.077 147.766 140.551 147.766C140.09 147.766 139.669 147.893 139.289 148.148C138.911 148.401 138.618 148.754 138.41 149.207C138.202 149.66 138.098 150.156 138.098 150.695C138.098 151.297 138.253 151.771 138.562 152.117C138.875 152.461 139.302 152.633 139.844 152.633ZM143.945 149H144.445C144.445 149.091 144.428 149.267 144.395 149.527C144.361 149.788 144.333 149.971 144.312 150.078H144.328C144.76 149.294 145.264 148.902 145.84 148.902C146.202 148.902 146.48 149.026 146.676 149.273C146.874 149.521 146.973 149.884 146.973 150.363C146.973 150.861 146.865 151.324 146.648 151.754C146.435 152.181 146.146 152.512 145.781 152.746C145.419 152.98 145.02 153.098 144.582 153.098C144.29 153.098 144.009 153.047 143.738 152.945L143.332 154.867H142.84L143.816 150.25C143.848 150.089 143.876 149.865 143.902 149.578C143.931 149.289 143.945 149.096 143.945 149ZM143.824 152.512C144.053 152.616 144.324 152.668 144.637 152.668C144.978 152.668 145.289 152.568 145.57 152.367C145.852 152.167 146.072 151.893 146.23 151.547C146.389 151.198 146.469 150.819 146.469 150.41C146.469 149.691 146.214 149.332 145.703 149.332C145.49 149.332 145.268 149.428 145.039 149.621C144.812 149.814 144.609 150.073 144.43 150.398C144.253 150.724 144.129 151.057 144.059 151.398L143.824 152.512ZM149.02 153.098C148.577 153.098 148.229 152.954 147.977 152.668C147.727 152.379 147.602 151.986 147.602 151.488C147.602 151.014 147.695 150.578 147.883 150.18C148.073 149.779 148.336 149.466 148.672 149.242C149.008 149.016 149.378 148.902 149.781 148.902C150.159 148.902 150.477 148.991 150.734 149.168L150.617 149.676C150.383 149.447 150.086 149.332 149.727 149.332C149.422 149.332 149.143 149.428 148.891 149.621C148.641 149.814 148.445 150.076 148.305 150.406C148.164 150.737 148.094 151.087 148.094 151.457C148.094 151.842 148.182 152.141 148.359 152.352C148.536 152.562 148.783 152.668 149.098 152.668C149.418 152.668 149.763 152.534 150.133 152.266L150.016 152.805C149.807 152.917 149.632 152.993 149.488 153.035C149.345 153.077 149.189 153.098 149.02 153.098ZM148.242 154.352C148.354 154.375 148.462 154.387 148.566 154.387C149.004 154.387 149.223 154.267 149.223 154.027C149.223 153.814 149.06 153.707 148.734 153.707L148.504 153.723L148.656 153H148.98L148.887 153.434C149.111 153.434 149.289 153.48 149.422 153.574C149.555 153.668 149.621 153.805 149.621 153.984C149.621 154.208 149.53 154.383 149.348 154.508C149.168 154.635 148.9 154.699 148.543 154.699C148.439 154.699 148.318 154.689 148.18 154.668L148.242 154.352ZM153.469 153C153.479 152.727 153.523 152.367 153.602 151.922H153.586C153.346 152.344 153.111 152.646 152.879 152.828C152.65 153.008 152.395 153.098 152.113 153.098C151.754 153.098 151.474 152.971 151.273 152.719C151.076 152.464 150.977 152.105 150.977 151.645C150.977 151.147 151.083 150.682 151.297 150.25C151.513 149.815 151.806 149.482 152.176 149.25C152.548 149.018 152.964 148.902 153.422 148.902C153.758 148.902 154.177 148.953 154.68 149.055L154.145 151.637C154.108 151.809 154.07 152.043 154.031 152.34C153.995 152.637 153.977 152.857 153.977 153H153.469ZM154.113 149.414C153.866 149.359 153.615 149.332 153.359 149.332C153.005 149.332 152.686 149.428 152.402 149.621C152.118 149.814 151.893 150.087 151.727 150.441C151.562 150.796 151.48 151.185 151.48 151.609C151.48 152.315 151.73 152.668 152.23 152.668C152.441 152.668 152.658 152.577 152.879 152.395C153.1 152.21 153.302 151.949 153.484 151.613C153.667 151.277 153.796 150.939 153.871 150.598L154.113 149.414ZM152.066 148.305C152.103 148.031 152.197 147.819 152.348 147.668C152.499 147.517 152.691 147.441 152.926 147.441C153.038 147.441 153.133 147.465 153.211 147.512C153.289 147.559 153.361 147.611 153.426 147.668C153.493 147.723 153.561 147.773 153.629 147.82C153.697 147.867 153.776 147.891 153.867 147.891C153.984 147.891 154.085 147.846 154.168 147.758C154.251 147.667 154.307 147.54 154.336 147.379H154.664C154.622 147.647 154.527 147.858 154.379 148.012C154.233 148.165 154.048 148.242 153.824 148.242C153.702 148.242 153.6 148.22 153.52 148.176C153.441 148.129 153.368 148.078 153.301 148.023C153.236 147.966 153.171 147.915 153.105 147.871C153.04 147.824 152.964 147.801 152.875 147.801C152.612 147.801 152.451 147.969 152.391 148.305H152.066ZM156.676 153.098C156.23 153.098 155.879 152.961 155.621 152.688C155.363 152.411 155.234 152.027 155.234 151.535C155.234 151.051 155.326 150.607 155.508 150.203C155.693 149.797 155.951 149.479 156.281 149.25C156.615 149.018 156.98 148.902 157.379 148.902C157.822 148.902 158.172 149.042 158.43 149.32C158.688 149.596 158.816 149.977 158.816 150.461C158.816 150.953 158.724 151.402 158.539 151.809C158.357 152.212 158.102 152.529 157.773 152.758C157.448 152.984 157.082 153.098 156.676 153.098ZM156.711 152.668C157.005 152.668 157.276 152.572 157.523 152.379C157.771 152.186 157.964 151.923 158.102 151.59C158.242 151.257 158.312 150.892 158.312 150.496C158.312 150.118 158.225 149.831 158.051 149.633C157.879 149.432 157.642 149.332 157.34 149.332C156.895 149.332 156.516 149.542 156.203 149.961C155.893 150.378 155.738 150.892 155.738 151.504C155.738 151.868 155.826 152.154 156 152.359C156.174 152.565 156.411 152.668 156.711 152.668ZM161.234 152.297C161.401 152.409 161.603 152.499 161.84 152.566C162.077 152.634 162.296 152.668 162.496 152.668C162.973 152.668 163.344 152.559 163.609 152.34C163.878 152.121 164.012 151.807 164.012 151.398C164.012 151.049 163.896 150.784 163.664 150.602C163.432 150.417 163.082 150.324 162.613 150.324H162.199L162.301 149.879H162.711C163.292 149.879 163.729 149.77 164.023 149.551C164.32 149.329 164.469 149.017 164.469 148.613C164.469 148.34 164.383 148.125 164.211 147.969C164.042 147.81 163.811 147.73 163.52 147.73C163.126 147.73 162.724 147.844 162.312 148.07L162.41 147.562C162.783 147.391 163.176 147.305 163.59 147.305C164.017 147.305 164.354 147.418 164.602 147.645C164.852 147.868 164.977 148.169 164.977 148.547C164.977 148.956 164.848 149.297 164.59 149.57C164.335 149.844 163.974 150.023 163.508 150.109V150.125C163.807 150.177 164.049 150.316 164.234 150.543C164.419 150.767 164.512 151.04 164.512 151.363C164.512 151.889 164.327 152.31 163.957 152.625C163.59 152.94 163.091 153.098 162.461 153.098C162.237 153.098 162 153.068 161.75 153.008C161.503 152.951 161.293 152.878 161.121 152.789L161.234 152.297Z" fill="#999999"/>
<path d="M222.82 153.098C222.13 153.098 221.582 152.878 221.176 152.438C220.77 151.995 220.566 151.414 220.566 150.695C220.566 150.057 220.698 149.48 220.961 148.965C221.227 148.447 221.589 148.04 222.047 147.746C222.505 147.452 223.017 147.305 223.582 147.305C224.257 147.305 224.797 147.525 225.203 147.965C225.609 148.402 225.812 148.975 225.812 149.684C225.812 150.311 225.685 150.889 225.43 151.418C225.174 151.944 224.819 152.355 224.363 152.652C223.91 152.949 223.396 153.098 222.82 153.098ZM222.844 152.633C223.312 152.633 223.729 152.51 224.094 152.266C224.461 152.021 224.75 151.665 224.961 151.199C225.172 150.733 225.277 150.236 225.277 149.707C225.277 149.108 225.121 148.635 224.809 148.289C224.496 147.94 224.077 147.766 223.551 147.766C223.09 147.766 222.669 147.893 222.289 148.148C221.911 148.401 221.618 148.754 221.41 149.207C221.202 149.66 221.098 150.156 221.098 150.695C221.098 151.297 221.253 151.771 221.562 152.117C221.875 152.461 222.302 152.633 222.844 152.633ZM226.945 149H227.445C227.445 149.091 227.428 149.267 227.395 149.527C227.361 149.788 227.333 149.971 227.312 150.078H227.328C227.76 149.294 228.264 148.902 228.84 148.902C229.202 148.902 229.48 149.026 229.676 149.273C229.874 149.521 229.973 149.884 229.973 150.363C229.973 150.861 229.865 151.324 229.648 151.754C229.435 152.181 229.146 152.512 228.781 152.746C228.419 152.98 228.02 153.098 227.582 153.098C227.29 153.098 227.009 153.047 226.738 152.945L226.332 154.867H225.84L226.816 150.25C226.848 150.089 226.876 149.865 226.902 149.578C226.931 149.289 226.945 149.096 226.945 149ZM226.824 152.512C227.053 152.616 227.324 152.668 227.637 152.668C227.978 152.668 228.289 152.568 228.57 152.367C228.852 152.167 229.072 151.893 229.23 151.547C229.389 151.198 229.469 150.819 229.469 150.41C229.469 149.691 229.214 149.332 228.703 149.332C228.49 149.332 228.268 149.428 228.039 149.621C227.812 149.814 227.609 150.073 227.43 150.398C227.253 150.724 227.129 151.057 227.059 151.398L226.824 152.512ZM232.02 153.098C231.577 153.098 231.229 152.954 230.977 152.668C230.727 152.379 230.602 151.986 230.602 151.488C230.602 151.014 230.695 150.578 230.883 150.18C231.073 149.779 231.336 149.466 231.672 149.242C232.008 149.016 232.378 148.902 232.781 148.902C233.159 148.902 233.477 148.991 233.734 149.168L233.617 149.676C233.383 149.447 233.086 149.332 232.727 149.332C232.422 149.332 232.143 149.428 231.891 149.621C231.641 149.814 231.445 150.076 231.305 150.406C231.164 150.737 231.094 151.087 231.094 151.457C231.094 151.842 231.182 152.141 231.359 152.352C231.536 152.562 231.783 152.668 232.098 152.668C232.418 152.668 232.763 152.534 233.133 152.266L233.016 152.805C232.807 152.917 232.632 152.993 232.488 153.035C232.345 153.077 232.189 153.098 232.02 153.098ZM231.242 154.352C231.354 154.375 231.462 154.387 231.566 154.387C232.004 154.387 232.223 154.267 232.223 154.027C232.223 153.814 232.06 153.707 231.734 153.707L231.504 153.723L231.656 153H231.98L231.887 153.434C232.111 153.434 232.289 153.48 232.422 153.574C232.555 153.668 232.621 153.805 232.621 153.984C232.621 154.208 232.53 154.383 232.348 154.508C232.168 154.635 231.9 154.699 231.543 154.699C231.439 154.699 231.318 154.689 231.18 154.668L231.242 154.352ZM236.469 153C236.479 152.727 236.523 152.367 236.602 151.922H236.586C236.346 152.344 236.111 152.646 235.879 152.828C235.65 153.008 235.395 153.098 235.113 153.098C234.754 153.098 234.474 152.971 234.273 152.719C234.076 152.464 233.977 152.105 233.977 151.645C233.977 151.147 234.083 150.682 234.297 150.25C234.513 149.815 234.806 149.482 235.176 149.25C235.548 149.018 235.964 148.902 236.422 148.902C236.758 148.902 237.177 148.953 237.68 149.055L237.145 151.637C237.108 151.809 237.07 152.043 237.031 152.34C236.995 152.637 236.977 152.857 236.977 153H236.469ZM237.113 149.414C236.866 149.359 236.615 149.332 236.359 149.332C236.005 149.332 235.686 149.428 235.402 149.621C235.118 149.814 234.893 150.087 234.727 150.441C234.562 150.796 234.48 151.185 234.48 151.609C234.48 152.315 234.73 152.668 235.23 152.668C235.441 152.668 235.658 152.577 235.879 152.395C236.1 152.21 236.302 151.949 236.484 151.613C236.667 151.277 236.796 150.939 236.871 150.598L237.113 149.414ZM235.066 148.305C235.103 148.031 235.197 147.819 235.348 147.668C235.499 147.517 235.691 147.441 235.926 147.441C236.038 147.441 236.133 147.465 236.211 147.512C236.289 147.559 236.361 147.611 236.426 147.668C236.493 147.723 236.561 147.773 236.629 147.82C236.697 147.867 236.776 147.891 236.867 147.891C236.984 147.891 237.085 147.846 237.168 147.758C237.251 147.667 237.307 147.54 237.336 147.379H237.664C237.622 147.647 237.527 147.858 237.379 148.012C237.233 148.165 237.048 148.242 236.824 148.242C236.702 148.242 236.6 148.22 236.52 148.176C236.441 148.129 236.368 148.078 236.301 148.023C236.236 147.966 236.171 147.915 236.105 147.871C236.04 147.824 235.964 147.801 235.875 147.801C235.612 147.801 235.451 147.969 235.391 148.305H235.066ZM239.676 153.098C239.23 153.098 238.879 152.961 238.621 152.688C238.363 152.411 238.234 152.027 238.234 151.535C238.234 151.051 238.326 150.607 238.508 150.203C238.693 149.797 238.951 149.479 239.281 149.25C239.615 149.018 239.98 148.902 240.379 148.902C240.822 148.902 241.172 149.042 241.43 149.32C241.688 149.596 241.816 149.977 241.816 150.461C241.816 150.953 241.724 151.402 241.539 151.809C241.357 152.212 241.102 152.529 240.773 152.758C240.448 152.984 240.082 153.098 239.676 153.098ZM239.711 152.668C240.005 152.668 240.276 152.572 240.523 152.379C240.771 152.186 240.964 151.923 241.102 151.59C241.242 151.257 241.312 150.892 241.312 150.496C241.312 150.118 241.225 149.831 241.051 149.633C240.879 149.432 240.642 149.332 240.34 149.332C239.895 149.332 239.516 149.542 239.203 149.961C238.893 150.378 238.738 150.892 238.738 151.504C238.738 151.868 238.826 152.154 239 152.359C239.174 152.565 239.411 152.668 239.711 152.668ZM247.914 147.398H248.445L247.645 151.16H248.52L248.426 151.605H247.551L247.254 153H246.77L247.066 151.605H244.418L244.512 151.16C245.105 150.618 245.717 149.999 246.348 149.301C246.98 148.603 247.503 147.969 247.914 147.398ZM247.16 151.16L247.781 148.238C247.003 149.22 246.108 150.194 245.098 151.16H247.16Z" fill="#999999"/>
<path d="M7.875 20H6.66797L2.34375 13.3027C2.23438 13.1348 2.14453 12.959 2.07422 12.7754H2.03906C2.07031 12.9551 2.08594 13.3398 2.08594 13.9297V20H1.10156V11.5977H2.37891L6.58594 18.1895C6.76172 18.4629 6.875 18.6504 6.92578 18.752H6.94922C6.91016 18.5098 6.89062 18.0977 6.89062 17.5156V11.5977H7.875V20ZM12.457 20.1406C11.5703 20.1406 10.8613 19.8613 10.3301 19.3027C9.80273 18.7402 9.53906 17.9961 9.53906 17.0703C9.53906 16.0625 9.81445 15.2754 10.3652 14.709C10.916 14.1426 11.6602 13.8594 12.5977 13.8594C13.4922 13.8594 14.1895 14.1348 14.6895 14.6855C15.1934 15.2363 15.4453 16 15.4453 16.9766C15.4453 17.9336 15.1738 18.7012 14.6309 19.2793C14.0918 19.8535 13.3672 20.1406 12.457 20.1406ZM12.5273 14.668C11.9102 14.668 11.4219 14.8789 11.0625 15.3008C10.7031 15.7188 10.5234 16.2969 10.5234 17.0352C10.5234 17.7461 10.7051 18.3066 11.0684 18.7168C11.4316 19.127 11.918 19.332 12.5273 19.332C13.1484 19.332 13.625 19.1309 13.957 18.7285C14.293 18.3262 14.4609 17.7539 14.4609 17.0117C14.4609 16.2617 14.293 15.6836 13.957 15.2773C13.625 14.8711 13.1484 14.668 12.5273 14.668ZM25.5 20H24.5391V16.5547C24.5391 15.8906 24.4355 15.4102 24.2285 15.1133C24.0254 14.8164 23.6816 14.668 23.1973 14.668C22.7871 14.668 22.4375 14.8555 22.1484 15.2305C21.8633 15.6055 21.7207 16.0547 21.7207 16.5781V20H20.7598V16.4375C20.7598 15.2578 20.3047 14.668 19.3945 14.668C18.9727 14.668 18.625 14.8457 18.3516 15.2012C18.0781 15.5527 17.9414 16.0117 17.9414 16.5781V20H16.9805V14H17.9414V14.9492H17.9648C18.3906 14.2227 19.0117 13.8594 19.8281 13.8594C20.2383 13.8594 20.5957 13.9746 20.9004 14.2051C21.2051 14.4316 21.4141 14.7305 21.5273 15.1016C21.9727 14.2734 22.6367 13.8594 23.5195 13.8594C24.8398 13.8594 25.5 14.6738 25.5 16.3027V20ZM32.1387 17.2402H27.9023C27.918 17.9082 28.0977 18.4238 28.4414 18.7871C28.7852 19.1504 29.2578 19.332 29.8594 19.332C30.5352 19.332 31.1562 19.1094 31.7227 18.6641V19.5664C31.1953 19.9492 30.498 20.1406 29.6309 20.1406C28.7832 20.1406 28.1172 19.8691 27.6328 19.3262C27.1484 18.7793 26.9062 18.0117 26.9062 17.0234C26.9062 16.0898 27.1699 15.3301 27.6973 14.7441C28.2285 14.1543 28.8867 13.8594 29.6719 13.8594C30.457 13.8594 31.0645 14.1133 31.4941 14.6211C31.9238 15.1289 32.1387 15.834 32.1387 16.7363V17.2402ZM31.1543 16.4258C31.1504 15.8711 31.0156 15.4395 30.75 15.1309C30.4883 14.8223 30.123 14.668 29.6543 14.668C29.2012 14.668 28.8164 14.8301 28.5 15.1543C28.1836 15.4785 27.9883 15.9023 27.9141 16.4258H31.1543ZM33.2344 19.7832V18.752C33.7578 19.1387 34.334 19.332 34.9629 19.332C35.8066 19.332 36.2285 19.0508 36.2285 18.4883C36.2285 18.3281 36.1914 18.1934 36.1172 18.084C36.0469 17.9707 35.9492 17.8711 35.8242 17.7852C35.7031 17.6992 35.5586 17.623 35.3906 17.5566C35.2266 17.4863 35.0488 17.4141 34.8574 17.3398C34.5918 17.2344 34.3574 17.1289 34.1543 17.0234C33.9551 16.9141 33.7871 16.793 33.6504 16.6602C33.5176 16.5234 33.416 16.3691 33.3457 16.1973C33.2793 16.0254 33.2461 15.8242 33.2461 15.5938C33.2461 15.3125 33.3105 15.0645 33.4395 14.8496C33.5684 14.6309 33.7402 14.4492 33.9551 14.3047C34.1699 14.1562 34.4141 14.0449 34.6875 13.9707C34.9648 13.8965 35.25 13.8594 35.543 13.8594C36.0625 13.8594 36.5273 13.9492 36.9375 14.1289V15.1016C36.4961 14.8125 35.9883 14.668 35.4141 14.668C35.2344 14.668 35.0723 14.6895 34.9277 14.7324C34.7832 14.7715 34.6582 14.8281 34.5527 14.9023C34.4512 14.9766 34.3711 15.0664 34.3125 15.1719C34.2578 15.2734 34.2305 15.3867 34.2305 15.5117C34.2305 15.668 34.2578 15.7988 34.3125 15.9043C34.3711 16.0098 34.4551 16.1035 34.5645 16.1855C34.6738 16.2676 34.8066 16.3418 34.9629 16.4082C35.1191 16.4746 35.2969 16.5469 35.4961 16.625C35.7617 16.7266 36 16.832 36.2109 16.9414C36.4219 17.0469 36.6016 17.168 36.75 17.3047C36.8984 17.4375 37.0117 17.5918 37.0898 17.7676C37.1719 17.9434 37.2129 18.1523 37.2129 18.3945C37.2129 18.6914 37.1465 18.9492 37.0137 19.168C36.8848 19.3867 36.7109 19.5684 36.4922 19.7129C36.2734 19.8574 36.0215 19.9648 35.7363 20.0352C35.4512 20.1055 35.1523 20.1406 34.8398 20.1406C34.2227 20.1406 33.6875 20.0215 33.2344 19.7832Z" fill="#666666"/>
<path d="M0.708984 108.66V107.5C0.841797 107.617 1 107.723 1.18359 107.816C1.37109 107.91 1.56641 107.99 1.76953 108.057C1.97656 108.119 2.18359 108.168 2.39062 108.203C2.59766 108.238 2.78906 108.256 2.96484 108.256C3.57031 108.256 4.02148 108.145 4.31836 107.922C4.61914 107.695 4.76953 107.371 4.76953 106.949C4.76953 106.723 4.71875 106.525 4.61719 106.357C4.51953 106.189 4.38281 106.037 4.20703 105.9C4.03125 105.76 3.82227 105.627 3.58008 105.502C3.3418 105.373 3.08398 105.238 2.80664 105.098C2.51367 104.949 2.24023 104.799 1.98633 104.646C1.73242 104.494 1.51172 104.326 1.32422 104.143C1.13672 103.959 0.988281 103.752 0.878906 103.521C0.773438 103.287 0.720703 103.014 0.720703 102.701C0.720703 102.318 0.804688 101.986 0.972656 101.705C1.14062 101.42 1.36133 101.186 1.63477 101.002C1.9082 100.818 2.21875 100.682 2.56641 100.592C2.91797 100.502 3.27539 100.457 3.63867 100.457C4.4668 100.457 5.07031 100.557 5.44922 100.756V101.863C4.95312 101.52 4.31641 101.348 3.53906 101.348C3.32422 101.348 3.10938 101.371 2.89453 101.418C2.67969 101.461 2.48828 101.533 2.32031 101.635C2.15234 101.736 2.01562 101.867 1.91016 102.027C1.80469 102.188 1.75195 102.383 1.75195 102.613C1.75195 102.828 1.79102 103.014 1.86914 103.17C1.95117 103.326 2.07031 103.469 2.22656 103.598C2.38281 103.727 2.57227 103.852 2.79492 103.973C3.02148 104.094 3.28125 104.227 3.57422 104.371C3.875 104.52 4.16016 104.676 4.42969 104.84C4.69922 105.004 4.93555 105.186 5.13867 105.385C5.3418 105.584 5.50195 105.805 5.61914 106.047C5.74023 106.289 5.80078 106.566 5.80078 106.879C5.80078 107.293 5.71875 107.645 5.55469 107.934C5.39453 108.219 5.17578 108.451 4.89844 108.631C4.625 108.811 4.30859 108.939 3.94922 109.018C3.58984 109.1 3.21094 109.141 2.8125 109.141C2.67969 109.141 2.51562 109.129 2.32031 109.105C2.125 109.086 1.92578 109.055 1.72266 109.012C1.51953 108.973 1.32617 108.924 1.14258 108.865C0.962891 108.803 0.818359 108.734 0.708984 108.66ZM9.85547 109.141C8.96875 109.141 8.25977 108.861 7.72852 108.303C7.20117 107.74 6.9375 106.996 6.9375 106.07C6.9375 105.062 7.21289 104.275 7.76367 103.709C8.31445 103.143 9.05859 102.859 9.99609 102.859C10.8906 102.859 11.5879 103.135 12.0879 103.686C12.5918 104.236 12.8438 105 12.8438 105.977C12.8438 106.934 12.5723 107.701 12.0293 108.279C11.4902 108.854 10.7656 109.141 9.85547 109.141ZM9.92578 103.668C9.30859 103.668 8.82031 103.879 8.46094 104.301C8.10156 104.719 7.92188 105.297 7.92188 106.035C7.92188 106.746 8.10352 107.307 8.4668 107.717C8.83008 108.127 9.31641 108.332 9.92578 108.332C10.5469 108.332 11.0234 108.131 11.3555 107.729C11.6914 107.326 11.8594 106.754 11.8594 106.012C11.8594 105.262 11.6914 104.684 11.3555 104.277C11.0234 103.871 10.5469 103.668 9.92578 103.668ZM15.3633 108.133H15.3398V109H14.3789V100.117H15.3398V104.055H15.3633C15.8359 103.258 16.5273 102.859 17.4375 102.859C18.207 102.859 18.8086 103.129 19.2422 103.668C19.6797 104.203 19.8984 104.922 19.8984 105.824C19.8984 106.828 19.6543 107.633 19.166 108.238C18.6777 108.84 18.0098 109.141 17.1621 109.141C16.3691 109.141 15.7695 108.805 15.3633 108.133ZM15.3398 105.713V106.551C15.3398 107.047 15.5 107.469 15.8203 107.816C16.1445 108.16 16.5547 108.332 17.0508 108.332C17.6328 108.332 18.0879 108.109 18.416 107.664C18.748 107.219 18.9141 106.6 18.9141 105.807C18.9141 105.139 18.7598 104.615 18.4512 104.236C18.1426 103.857 17.7246 103.668 17.1973 103.668C16.6387 103.668 16.1895 103.863 15.8496 104.254C15.5098 104.641 15.3398 105.127 15.3398 105.713ZM24.5625 103.973C24.3945 103.844 24.1523 103.779 23.8359 103.779C23.4258 103.779 23.082 103.973 22.8047 104.359C22.5312 104.746 22.3945 105.273 22.3945 105.941V109H21.4336V103H22.3945V104.236H22.418C22.5547 103.814 22.7637 103.486 23.0449 103.252C23.3262 103.014 23.6406 102.895 23.9883 102.895C24.2383 102.895 24.4297 102.922 24.5625 102.977V103.973ZM30.4277 106.24H26.1914C26.207 106.908 26.3867 107.424 26.7305 107.787C27.0742 108.15 27.5469 108.332 28.1484 108.332C28.8242 108.332 29.4453 108.109 30.0117 107.664V108.566C29.4844 108.949 28.7871 109.141 27.9199 109.141C27.0723 109.141 26.4062 108.869 25.9219 108.326C25.4375 107.779 25.1953 107.012 25.1953 106.023C25.1953 105.09 25.459 104.33 25.9863 103.744C26.5176 103.154 27.1758 102.859 27.9609 102.859C28.7461 102.859 29.3535 103.113 29.7832 103.621C30.2129 104.129 30.4277 104.834 30.4277 105.736V106.24ZM29.4434 105.426C29.4395 104.871 29.3047 104.439 29.0391 104.131C28.7773 103.822 28.4121 103.668 27.9434 103.668C27.4902 103.668 27.1055 103.83 26.7891 104.154C26.4727 104.479 26.2773 104.902 26.2031 105.426H29.4434ZM36.8672 109H35.9062V105.578C35.9062 104.305 35.4414 103.668 34.5117 103.668C34.0312 103.668 33.6328 103.85 33.3164 104.213C33.0039 104.572 32.8477 105.027 32.8477 105.578V109H31.8867V103H32.8477V103.996H32.8711C33.3242 103.238 33.9805 102.859 34.8398 102.859C35.4961 102.859 35.998 103.072 36.3457 103.498C36.6934 103.92 36.8672 104.531 36.8672 105.332V109ZM41.1914 109.141C40.3047 109.141 39.5957 108.861 39.0645 108.303C38.5371 107.74 38.2734 106.996 38.2734 106.07C38.2734 105.062 38.5488 104.275 39.0996 103.709C39.6504 103.143 40.3945 102.859 41.332 102.859C42.2266 102.859 42.9238 103.135 43.4238 103.686C43.9277 104.236 44.1797 105 44.1797 105.977C44.1797 106.934 43.9082 107.701 43.3652 108.279C42.8262 108.854 42.1016 109.141 41.1914 109.141ZM41.2617 103.668C40.6445 103.668 40.1562 103.879 39.7969 104.301C39.4375 104.719 39.2578 105.297 39.2578 106.035C39.2578 106.746 39.4395 107.307 39.8027 107.717C40.166 108.127 40.6523 108.332 41.2617 108.332C41.8828 108.332 42.3594 108.131 42.6914 107.729C43.0273 107.326 43.1953 106.754 43.1953 106.012C43.1953 105.262 43.0273 104.684 42.6914 104.277C42.3594 103.871 41.8828 103.668 41.2617 103.668ZM54.2344 109H53.2734V105.555C53.2734 104.891 53.1699 104.41 52.9629 104.113C52.7598 103.816 52.416 103.668 51.9316 103.668C51.5215 103.668 51.1719 103.855 50.8828 104.23C50.5977 104.605 50.4551 105.055 50.4551 105.578V109H49.4941V105.438C49.4941 104.258 49.0391 103.668 48.1289 103.668C47.707 103.668 47.3594 103.846 47.0859 104.201C46.8125 104.553 46.6758 105.012 46.6758 105.578V109H45.7148V103H46.6758V103.949H46.6992C47.125 103.223 47.7461 102.859 48.5625 102.859C48.9727 102.859 49.3301 102.975 49.6348 103.205C49.9395 103.432 50.1484 103.73 50.2617 104.102C50.707 103.273 51.3711 102.859 52.2539 102.859C53.5742 102.859 54.2344 103.674 54.2344 105.303V109ZM60.873 106.24H56.6367C56.6523 106.908 56.832 107.424 57.1758 107.787C57.5195 108.15 57.9922 108.332 58.5938 108.332C59.2695 108.332 59.8906 108.109 60.457 107.664V108.566C59.9297 108.949 59.2324 109.141 58.3652 109.141C57.5176 109.141 56.8516 108.869 56.3672 108.326C55.8828 107.779 55.6406 107.012 55.6406 106.023C55.6406 105.09 55.9043 104.33 56.4316 103.744C56.9629 103.154 57.6211 102.859 58.4062 102.859C59.1914 102.859 59.7988 103.113 60.2285 103.621C60.6582 104.129 60.873 104.834 60.873 105.736V106.24ZM59.8887 105.426C59.8848 104.871 59.75 104.439 59.4844 104.131C59.2227 103.822 58.8574 103.668 58.3887 103.668C57.9355 103.668 57.5508 103.83 57.2344 104.154C56.918 104.479 56.7227 104.902 56.6484 105.426H59.8887ZM61.9688 108.783V107.752C62.4922 108.139 63.0684 108.332 63.6973 108.332C64.541 108.332 64.9629 108.051 64.9629 107.488C64.9629 107.328 64.9258 107.193 64.8516 107.084C64.7812 106.971 64.6836 106.871 64.5586 106.785C64.4375 106.699 64.293 106.623 64.125 106.557C63.9609 106.486 63.7832 106.414 63.5918 106.34C63.3262 106.234 63.0918 106.129 62.8887 106.023C62.6895 105.914 62.5215 105.793 62.3848 105.66C62.252 105.523 62.1504 105.369 62.0801 105.197C62.0137 105.025 61.9805 104.824 61.9805 104.594C61.9805 104.312 62.0449 104.064 62.1738 103.85C62.3027 103.631 62.4746 103.449 62.6895 103.305C62.9043 103.156 63.1484 103.045 63.4219 102.971C63.6992 102.896 63.9844 102.859 64.2773 102.859C64.7969 102.859 65.2617 102.949 65.6719 103.129V104.102C65.2305 103.812 64.7227 103.668 64.1484 103.668C63.9688 103.668 63.8066 103.689 63.6621 103.732C63.5176 103.771 63.3926 103.828 63.2871 103.902C63.1855 103.977 63.1055 104.066 63.0469 104.172C62.9922 104.273 62.9648 104.387 62.9648 104.512C62.9648 104.668 62.9922 104.799 63.0469 104.904C63.1055 105.01 63.1895 105.104 63.2988 105.186C63.4082 105.268 63.541 105.342 63.6973 105.408C63.8535 105.475 64.0312 105.547 64.2305 105.625C64.4961 105.727 64.7344 105.832 64.9453 105.941C65.1562 106.047 65.3359 106.168 65.4844 106.305C65.6328 106.438 65.7461 106.592 65.8242 106.768C65.9062 106.943 65.9473 107.152 65.9473 107.395C65.9473 107.691 65.8809 107.949 65.748 108.168C65.6191 108.387 65.4453 108.568 65.2266 108.713C65.0078 108.857 64.7559 108.965 64.4707 109.035C64.1855 109.105 63.8867 109.141 63.5742 109.141C62.957 109.141 62.4219 109.021 61.9688 108.783Z" fill="#666666"/>
<path d="M68.6206 49.5605C67.8296 49.9707 66.8457 50.1758 65.6689 50.1758C64.1455 50.1758 62.9248 49.6948 62.0068 48.7329C61.0889 47.771 60.6299 46.5088 60.6299 44.9463C60.6299 43.2666 61.145 41.9092 62.1753 40.874C63.2104 39.8389 64.5166 39.3213 66.0938 39.3213C67.1094 39.3213 67.9517 39.4653 68.6206 39.7534V41.4819C67.9126 41.062 67.1313 40.8521 66.2769 40.8521C65.1392 40.8521 64.2163 41.2158 63.5083 41.9434C62.8052 42.6709 62.4536 43.6426 62.4536 44.8584C62.4536 46.0156 62.7832 46.9385 63.4424 47.627C64.1016 48.3105 64.9683 48.6523 66.0425 48.6523C67.0337 48.6523 67.8931 48.418 68.6206 47.9492V49.5605ZM74.7729 44.1187C74.5679 43.9575 74.2725 43.877 73.8867 43.877C73.3838 43.877 72.9639 44.104 72.627 44.5581C72.29 45.0122 72.1216 45.6299 72.1216 46.4111V50H70.4224V42.5H72.1216V44.0454H72.1509C72.3169 43.5181 72.5708 43.1079 72.9126 42.8149C73.2593 42.5171 73.645 42.3682 74.0698 42.3682C74.3774 42.3682 74.6118 42.4146 74.7729 42.5073V44.1187ZM76.8311 40.9253C76.5527 40.9253 76.3135 40.835 76.1133 40.6543C75.918 40.4736 75.8203 40.2441 75.8203 39.9658C75.8203 39.6875 75.918 39.4556 76.1133 39.27C76.3135 39.0845 76.5527 38.9917 76.8311 38.9917C77.1191 38.9917 77.3633 39.0845 77.5635 39.27C77.7637 39.4556 77.8638 39.6875 77.8638 39.9658C77.8638 40.2295 77.7637 40.4565 77.5635 40.647C77.3633 40.8325 77.1191 40.9253 76.8311 40.9253ZM77.6733 50H75.9741V42.5H77.6733V50ZM79.4312 49.7656V48.1909C80.0659 48.6743 80.7666 48.916 81.5332 48.916C82.5586 48.916 83.0713 48.6133 83.0713 48.0078C83.0713 47.8369 83.0273 47.6929 82.9395 47.5757C82.8516 47.4536 82.7319 47.3462 82.5806 47.2534C82.4341 47.1606 82.2583 47.0776 82.0532 47.0044C81.853 46.9312 81.6284 46.8481 81.3794 46.7554C81.0718 46.6333 80.7935 46.5039 80.5444 46.3672C80.3003 46.2305 80.0952 46.0767 79.9292 45.9058C79.7681 45.73 79.646 45.5322 79.563 45.3125C79.48 45.0928 79.4385 44.8364 79.4385 44.5435C79.4385 44.1821 79.5239 43.8647 79.6948 43.5913C79.8657 43.313 80.0952 43.0811 80.3833 42.8955C80.6714 42.7051 80.9985 42.5635 81.3647 42.4707C81.731 42.373 82.1094 42.3242 82.5 42.3242C83.1934 42.3242 83.8135 42.4292 84.3604 42.6392V44.126C83.833 43.7646 83.2275 43.584 82.5439 43.584C82.3291 43.584 82.1338 43.606 81.958 43.6499C81.7871 43.6938 81.6406 43.7549 81.5186 43.833C81.3965 43.9111 81.3013 44.0063 81.2329 44.1187C81.1646 44.2261 81.1304 44.3457 81.1304 44.4775C81.1304 44.6387 81.1646 44.7754 81.2329 44.8877C81.3013 45 81.4014 45.1001 81.5332 45.188C81.6699 45.271 81.8311 45.3491 82.0166 45.4224C82.207 45.4907 82.4243 45.5664 82.6685 45.6494C82.9907 45.7812 83.2788 45.9155 83.5327 46.0522C83.7915 46.189 84.0112 46.3452 84.1919 46.521C84.3726 46.6919 84.5117 46.8921 84.6094 47.1216C84.707 47.3462 84.7559 47.6147 84.7559 47.9272C84.7559 48.3081 84.668 48.6401 84.4922 48.9233C84.3164 49.2065 84.082 49.4409 83.7891 49.6265C83.4961 49.812 83.1567 49.9487 82.771 50.0366C82.3901 50.1294 81.9873 50.1758 81.5625 50.1758C80.7422 50.1758 80.0317 50.0391 79.4312 49.7656ZM90.3296 49.9194C89.9976 50.0854 89.5605 50.1685 89.0186 50.1685C87.5635 50.1685 86.8359 49.4702 86.8359 48.0737V43.833H85.5835V42.5H86.8359V40.7642L88.5352 40.2808V42.5H90.3296V43.833H88.5352V47.583C88.5352 48.0273 88.6157 48.3447 88.7769 48.5352C88.938 48.7256 89.2065 48.8208 89.5825 48.8208C89.8706 48.8208 90.1196 48.7378 90.3296 48.5718V49.9194ZM92.6514 40.9253C92.373 40.9253 92.1338 40.835 91.9336 40.6543C91.7383 40.4736 91.6406 40.2441 91.6406 39.9658C91.6406 39.6875 91.7383 39.4556 91.9336 39.27C92.1338 39.0845 92.373 38.9917 92.6514 38.9917C92.9395 38.9917 93.1836 39.0845 93.3838 39.27C93.584 39.4556 93.6841 39.6875 93.6841 39.9658C93.6841 40.2295 93.584 40.4565 93.3838 40.647C93.1836 40.8325 92.9395 40.9253 92.6514 40.9253ZM93.4937 50H91.7944V42.5H93.4937V50ZM101.477 50H99.8291V48.8281H99.7998C99.2822 49.7266 98.5229 50.1758 97.522 50.1758C96.7847 50.1758 96.2061 49.9756 95.7861 49.5752C95.3711 49.1748 95.1636 48.645 95.1636 47.9858C95.1636 46.5698 95.979 45.7446 97.6099 45.5103L99.8364 45.1953C99.8364 44.126 99.3286 43.5913 98.313 43.5913C97.4194 43.5913 96.6138 43.8989 95.896 44.5142V43.0273C96.687 42.5586 97.6001 42.3242 98.6353 42.3242C100.53 42.3242 101.477 43.2568 101.477 45.1221V50ZM99.8364 46.3159L98.2617 46.5356C97.7734 46.5991 97.4048 46.7188 97.1558 46.8945C96.9116 47.0654 96.7896 47.3682 96.7896 47.8027C96.7896 48.1201 96.9019 48.3813 97.1265 48.5864C97.356 48.7866 97.6611 48.8867 98.042 48.8867C98.5596 48.8867 98.9868 48.7061 99.3237 48.3447C99.6655 47.9785 99.8364 47.5195 99.8364 46.9678V46.3159ZM110.237 50H108.538V45.7739C108.538 44.3726 108.042 43.6719 107.051 43.6719C106.533 43.6719 106.106 43.8672 105.769 44.2578C105.432 44.6436 105.264 45.1318 105.264 45.7227V50H103.557V42.5H105.264V43.7451H105.293C105.854 42.7979 106.665 42.3242 107.725 42.3242C108.54 42.3242 109.163 42.5903 109.592 43.1226C110.022 43.6499 110.237 44.4141 110.237 45.415V50ZM115.642 50.1758C114.485 50.1758 113.56 49.8267 112.866 49.1284C112.178 48.4253 111.833 47.4951 111.833 46.3379C111.833 45.0781 112.192 44.0942 112.91 43.3862C113.633 42.6782 114.604 42.3242 115.825 42.3242C116.997 42.3242 117.91 42.6685 118.564 43.3569C119.219 44.0454 119.546 45 119.546 46.2207C119.546 47.417 119.192 48.3765 118.484 49.0991C117.781 49.8169 116.833 50.1758 115.642 50.1758ZM115.723 43.6792C115.059 43.6792 114.534 43.9111 114.148 44.375C113.762 44.8389 113.569 45.4785 113.569 46.2939C113.569 47.0801 113.765 47.7002 114.155 48.1543C114.546 48.6035 115.068 48.8281 115.723 48.8281C116.392 48.8281 116.904 48.606 117.261 48.1616C117.622 47.7173 117.803 47.085 117.803 46.2646C117.803 45.4395 117.622 44.8022 117.261 44.353C116.904 43.9038 116.392 43.6792 115.723 43.6792Z" fill="#666666"/>
<path d="M8.62061 51.5605C7.82959 51.9707 6.8457 52.1758 5.66895 52.1758C4.14551 52.1758 2.9248 51.6948 2.00684 50.7329C1.08887 49.771 0.629883 48.5088 0.629883 46.9463C0.629883 45.2666 1.14502 43.9092 2.17529 42.874C3.21045 41.8389 4.5166 41.3213 6.09375 41.3213C7.10938 41.3213 7.95166 41.4653 8.62061 41.7534V43.4819C7.9126 43.062 7.13135 42.8521 6.27686 42.8521C5.13916 42.8521 4.21631 43.2158 3.5083 43.9434C2.80518 44.6709 2.45361 45.6426 2.45361 46.8584C2.45361 48.0156 2.7832 48.9385 3.44238 49.627C4.10156 50.3105 4.96826 50.6523 6.04248 50.6523C7.03369 50.6523 7.89307 50.418 8.62061 49.9492V51.5605ZM17.0874 52H15.3882V47.8984C15.3882 46.4141 14.8926 45.6719 13.9014 45.6719C13.4033 45.6719 12.9834 45.8867 12.6416 46.3164C12.2998 46.7461 12.1289 47.2954 12.1289 47.9644V52H10.4224V40.8965H12.1289V45.7451H12.1582C12.7246 44.7979 13.5352 44.3242 14.5898 44.3242C16.2549 44.3242 17.0874 45.3423 17.0874 47.3784V52ZM23.5034 46.1187C23.2983 45.9575 23.0029 45.877 22.6172 45.877C22.1143 45.877 21.6943 46.104 21.3574 46.5581C21.0205 47.0122 20.8521 47.6299 20.8521 48.4111V52H19.1528V44.5H20.8521V46.0454H20.8813C21.0474 45.5181 21.3013 45.1079 21.6431 44.8149C21.9897 44.5171 22.3755 44.3682 22.8003 44.3682C23.1079 44.3682 23.3423 44.4146 23.5034 44.5073V46.1187ZM25.5615 42.9253C25.2832 42.9253 25.0439 42.835 24.8438 42.6543C24.6484 42.4736 24.5508 42.2441 24.5508 41.9658C24.5508 41.6875 24.6484 41.4556 24.8438 41.27C25.0439 41.0845 25.2832 40.9917 25.5615 40.9917C25.8496 40.9917 26.0938 41.0845 26.2939 41.27C26.4941 41.4556 26.5942 41.6875 26.5942 41.9658C26.5942 42.2295 26.4941 42.4565 26.2939 42.647C26.0938 42.8325 25.8496 42.9253 25.5615 42.9253ZM26.4038 52H24.7046V44.5H26.4038V52ZM28.1616 51.7656V50.1909C28.7964 50.6743 29.4971 50.916 30.2637 50.916C31.2891 50.916 31.8018 50.6133 31.8018 50.0078C31.8018 49.8369 31.7578 49.6929 31.6699 49.5757C31.582 49.4536 31.4624 49.3462 31.311 49.2534C31.1646 49.1606 30.9888 49.0776 30.7837 49.0044C30.5835 48.9312 30.3589 48.8481 30.1099 48.7554C29.8022 48.6333 29.5239 48.5039 29.2749 48.3672C29.0308 48.2305 28.8257 48.0767 28.6597 47.9058C28.4985 47.73 28.3765 47.5322 28.2935 47.3125C28.2104 47.0928 28.1689 46.8364 28.1689 46.5435C28.1689 46.1821 28.2544 45.8647 28.4253 45.5913C28.5962 45.313 28.8257 45.0811 29.1138 44.8955C29.4019 44.7051 29.729 44.5635 30.0952 44.4707C30.4614 44.373 30.8398 44.3242 31.2305 44.3242C31.9238 44.3242 32.5439 44.4292 33.0908 44.6392V46.126C32.5635 45.7646 31.958 45.584 31.2744 45.584C31.0596 45.584 30.8643 45.606 30.6885 45.6499C30.5176 45.6938 30.3711 45.7549 30.249 45.833C30.127 45.9111 30.0317 46.0063 29.9634 46.1187C29.895 46.2261 29.8608 46.3457 29.8608 46.4775C29.8608 46.6387 29.895 46.7754 29.9634 46.8877C30.0317 47 30.1318 47.1001 30.2637 47.188C30.4004 47.271 30.5615 47.3491 30.7471 47.4224C30.9375 47.4907 31.1548 47.5664 31.3989 47.6494C31.7212 47.7812 32.0093 47.9155 32.2632 48.0522C32.522 48.189 32.7417 48.3452 32.9224 48.521C33.103 48.6919 33.2422 48.8921 33.3398 49.1216C33.4375 49.3462 33.4863 49.6147 33.4863 49.9272C33.4863 50.3081 33.3984 50.6401 33.2227 50.9233C33.0469 51.2065 32.8125 51.4409 32.5195 51.6265C32.2266 51.812 31.8872 51.9487 31.5015 52.0366C31.1206 52.1294 30.7178 52.1758 30.293 52.1758C29.4727 52.1758 28.7622 52.0391 28.1616 51.7656Z" fill="#666666"/>
<path d="M6.625 142.176C5.11133 142.176 3.89795 141.685 2.98486 140.704C2.07666 139.722 1.62256 138.445 1.62256 136.873C1.62256 135.184 2.08643 133.836 3.01416 132.83C3.94189 131.824 5.20166 131.321 6.79346 131.321C8.26807 131.321 9.45459 131.81 10.353 132.786C11.2563 133.763 11.708 135.04 11.708 136.617C11.708 138.331 11.2466 139.686 10.3237 140.682C9.40088 141.678 8.16797 142.176 6.625 142.176ZM6.70557 132.852C5.74365 132.852 4.95996 133.211 4.35449 133.929C3.75391 134.646 3.45361 135.591 3.45361 136.763C3.45361 137.93 3.74658 138.87 4.33252 139.583C4.91846 140.296 5.68506 140.652 6.63232 140.652C7.63818 140.652 8.43164 140.313 9.0127 139.634C9.59375 138.956 9.88428 138.006 9.88428 136.785C9.88428 135.53 9.60107 134.561 9.03467 133.877C8.47314 133.194 7.69678 132.852 6.70557 132.852ZM15.1504 142H13.4438V130.896H15.1504V142ZM18.2266 132.925C17.9482 132.925 17.709 132.835 17.5088 132.654C17.3135 132.474 17.2158 132.244 17.2158 131.966C17.2158 131.688 17.3135 131.456 17.5088 131.27C17.709 131.084 17.9482 130.992 18.2266 130.992C18.5146 130.992 18.7588 131.084 18.959 131.27C19.1592 131.456 19.2593 131.688 19.2593 131.966C19.2593 132.229 19.1592 132.457 18.959 132.647C18.7588 132.833 18.5146 132.925 18.2266 132.925ZM19.0688 142H17.3696V134.5H19.0688V142ZM27.7554 134.5L24.855 142H23.0166L20.2554 134.5H22.1011L23.7637 139.744C23.8906 140.13 23.9688 140.467 23.998 140.755H24.02C24.064 140.394 24.1323 140.066 24.2251 139.773L25.9683 134.5H27.7554ZM35.1455 138.711H30.0332C30.0527 139.405 30.2651 139.939 30.6704 140.315C31.0806 140.691 31.6421 140.879 32.355 140.879C33.1558 140.879 33.8906 140.64 34.5596 140.162V141.531C33.876 141.961 32.9727 142.176 31.8496 142.176C30.7461 142.176 29.8794 141.836 29.2495 141.158C28.6245 140.474 28.312 139.515 28.312 138.279C28.312 137.112 28.6562 136.163 29.3447 135.43C30.0381 134.693 30.8975 134.324 31.9229 134.324C32.9482 134.324 33.7417 134.654 34.3032 135.313C34.8647 135.972 35.1455 136.888 35.1455 138.06V138.711ZM33.5049 137.51C33.5 136.9 33.356 136.426 33.0728 136.089C32.7896 135.748 32.3989 135.577 31.9009 135.577C31.4126 135.577 30.9976 135.755 30.6558 136.111C30.3188 136.468 30.1113 136.934 30.0332 137.51H33.5049ZM37.6211 132.925C37.3428 132.925 37.1035 132.835 36.9033 132.654C36.708 132.474 36.6104 132.244 36.6104 131.966C36.6104 131.688 36.708 131.456 36.9033 131.27C37.1035 131.084 37.3428 130.992 37.6211 130.992C37.9092 130.992 38.1533 131.084 38.3535 131.27C38.5537 131.456 38.6538 131.688 38.6538 131.966C38.6538 132.229 38.5537 132.457 38.3535 132.647C38.1533 132.833 37.9092 132.925 37.6211 132.925ZM38.4634 142H36.7642V134.5H38.4634V142ZM45.0405 136.119C44.8354 135.958 44.54 135.877 44.1543 135.877C43.6514 135.877 43.2314 136.104 42.8945 136.558C42.5576 137.012 42.3892 137.63 42.3892 138.411V142H40.6899V134.5H42.3892V136.045H42.4185C42.5845 135.518 42.8384 135.108 43.1802 134.815C43.5269 134.517 43.9126 134.368 44.3374 134.368C44.645 134.368 44.8794 134.415 45.0405 134.507V136.119ZM51.9985 142H50.3506V140.828H50.3213C49.8037 141.727 49.0444 142.176 48.0435 142.176C47.3062 142.176 46.7275 141.976 46.3076 141.575C45.8926 141.175 45.6851 140.645 45.6851 139.986C45.6851 138.57 46.5005 137.745 48.1313 137.51L50.3579 137.195C50.3579 136.126 49.8501 135.591 48.8345 135.591C47.9409 135.591 47.1353 135.899 46.4175 136.514V135.027C47.2085 134.559 48.1216 134.324 49.1567 134.324C51.0513 134.324 51.9985 135.257 51.9985 137.122V142ZM50.3579 138.316L48.7832 138.536C48.2949 138.599 47.9263 138.719 47.6772 138.895C47.4331 139.065 47.311 139.368 47.311 139.803C47.311 140.12 47.4233 140.381 47.6479 140.586C47.8774 140.787 48.1826 140.887 48.5635 140.887C49.0811 140.887 49.5083 140.706 49.8452 140.345C50.187 139.979 50.3579 139.52 50.3579 138.968V138.316Z" fill="#666666"/>
<path d="M155.73 51.6265C154.964 51.9976 153.963 52.1831 152.728 52.1831C151.116 52.1831 149.849 51.7095 148.926 50.7622C148.003 49.8149 147.542 48.5527 147.542 46.9756C147.542 45.2959 148.06 43.9336 149.095 42.8887C150.135 41.8438 151.482 41.3213 153.138 41.3213C154.163 41.3213 155.027 41.4507 155.73 41.7095V43.9873C155.027 43.5674 154.227 43.3574 153.328 43.3574C152.342 43.3574 151.546 43.6675 150.94 44.2876C150.335 44.9077 150.032 45.7476 150.032 46.8071C150.032 47.8228 150.318 48.6333 150.889 49.2388C151.46 49.8394 152.229 50.1396 153.196 50.1396C154.119 50.1396 154.964 49.915 155.73 49.4658V51.6265ZM162.227 46.5874C161.949 46.436 161.624 46.3604 161.253 46.3604C160.75 46.3604 160.357 46.5459 160.074 46.917C159.791 47.2832 159.649 47.7837 159.649 48.4185V52H157.334V44.5H159.649V45.8916H159.678C160.044 44.876 160.704 44.3682 161.656 44.3682C161.9 44.3682 162.09 44.3975 162.227 44.4561V46.5874ZM164.542 43.3135C164.151 43.3135 163.831 43.1987 163.582 42.9692C163.333 42.7349 163.208 42.4492 163.208 42.1123C163.208 41.7656 163.333 41.4824 163.582 41.2627C163.831 41.043 164.151 40.9331 164.542 40.9331C164.937 40.9331 165.257 41.043 165.501 41.2627C165.75 41.4824 165.875 41.7656 165.875 42.1123C165.875 42.4639 165.75 42.752 165.501 42.9766C165.257 43.2012 164.937 43.3135 164.542 43.3135ZM165.684 52H163.37V44.5H165.684V52ZM167.142 51.8022V49.9272C167.522 50.1567 167.901 50.3276 168.277 50.4399C168.658 50.5522 169.017 50.6084 169.354 50.6084C169.764 50.6084 170.086 50.5522 170.32 50.4399C170.56 50.3276 170.679 50.1567 170.679 49.9272C170.679 49.7808 170.625 49.6587 170.518 49.561C170.411 49.4634 170.271 49.3779 170.101 49.3047C169.935 49.2314 169.751 49.1655 169.551 49.1069C169.351 49.0483 169.158 48.9824 168.973 48.9092C168.675 48.7969 168.411 48.6772 168.182 48.5503C167.957 48.4185 167.767 48.2671 167.61 48.0962C167.459 47.9253 167.342 47.7275 167.259 47.5029C167.181 47.2783 167.142 47.0122 167.142 46.7046C167.142 46.2847 167.232 45.9233 167.413 45.6206C167.598 45.3179 167.842 45.0713 168.145 44.8809C168.453 44.6855 168.802 44.5439 169.192 44.4561C169.588 44.3633 169.998 44.3169 170.423 44.3169C170.755 44.3169 171.092 44.3438 171.434 44.3975C171.775 44.4463 172.112 44.5195 172.444 44.6172V46.4043C172.151 46.2334 171.836 46.1064 171.5 46.0234C171.167 45.9355 170.84 45.8916 170.518 45.8916C170.367 45.8916 170.223 45.9062 170.086 45.9355C169.954 45.96 169.837 45.999 169.734 46.0527C169.632 46.1016 169.551 46.1675 169.493 46.2505C169.434 46.3286 169.405 46.4189 169.405 46.5215C169.405 46.6582 169.449 46.7754 169.537 46.873C169.625 46.9707 169.739 47.0562 169.881 47.1294C170.022 47.1978 170.179 47.2612 170.35 47.3198C170.525 47.3735 170.699 47.4297 170.87 47.4883C171.177 47.5957 171.456 47.7129 171.705 47.8398C171.954 47.9668 172.166 48.1157 172.342 48.2866C172.522 48.4575 172.659 48.6577 172.752 48.8872C172.85 49.1167 172.898 49.3901 172.898 49.7075C172.898 50.1519 172.801 50.5327 172.605 50.8501C172.415 51.1626 172.159 51.4189 171.836 51.6191C171.519 51.8145 171.15 51.9561 170.73 52.0439C170.315 52.1367 169.883 52.1831 169.434 52.1831C168.609 52.1831 167.845 52.0562 167.142 51.8022ZM178.772 51.9121C178.431 52.0928 177.916 52.1831 177.227 52.1831C175.596 52.1831 174.781 51.3359 174.781 49.6416V46.2065H173.565V44.5H174.781V42.8813L177.088 42.2222V44.5H178.772V46.2065H177.088V49.2388C177.088 50.02 177.398 50.4106 178.018 50.4106C178.262 50.4106 178.514 50.3398 178.772 50.1982V51.9121ZM181.255 43.3135C180.865 43.3135 180.545 43.1987 180.296 42.9692C180.047 42.7349 179.922 42.4492 179.922 42.1123C179.922 41.7656 180.047 41.4824 180.296 41.2627C180.545 41.043 180.865 40.9331 181.255 40.9331C181.651 40.9331 181.971 41.043 182.215 41.2627C182.464 41.4824 182.588 41.7656 182.588 42.1123C182.588 42.4639 182.464 42.752 182.215 42.9766C181.971 43.2012 181.651 43.3135 181.255 43.3135ZM182.398 52H180.083V44.5H182.398V52ZM190.586 52H188.396V50.9233H188.367C187.864 51.7632 187.12 52.1831 186.133 52.1831C185.406 52.1831 184.832 51.978 184.412 51.5679C183.997 51.1528 183.79 50.6011 183.79 49.9126C183.79 48.4575 184.651 47.6177 186.375 47.3931L188.411 47.1221C188.411 46.3018 187.967 45.8916 187.078 45.8916C186.185 45.8916 185.335 46.1577 184.529 46.6899V44.9468C184.852 44.7808 185.291 44.6343 185.848 44.5073C186.409 44.3804 186.919 44.3169 187.378 44.3169C189.517 44.3169 190.586 45.3838 190.586 47.5176V52ZM188.411 48.9531V48.4478L187.049 48.6235C186.297 48.7212 185.921 49.0605 185.921 49.6416C185.921 49.9053 186.011 50.1226 186.192 50.2935C186.377 50.4595 186.626 50.5425 186.939 50.5425C187.374 50.5425 187.728 50.3936 188.001 50.0957C188.274 49.793 188.411 49.4121 188.411 48.9531ZM199.661 52H197.354V47.8325C197.354 46.6704 196.939 46.0894 196.109 46.0894C195.708 46.0894 195.379 46.2432 195.12 46.5508C194.861 46.8584 194.732 47.249 194.732 47.7227V52H192.417V44.5H194.732V45.6865H194.761C195.313 44.7734 196.116 44.3169 197.171 44.3169C198.831 44.3169 199.661 45.3472 199.661 47.4077V52Z" fill="#666666"/>
<path d="M79.813 141.583V139.788C79.9741 139.935 80.1646 140.066 80.3843 140.184C80.6089 140.301 80.8457 140.401 81.0947 140.484C81.3438 140.562 81.5928 140.623 81.8418 140.667C82.0908 140.711 82.3203 140.733 82.5303 140.733C83.2627 140.733 83.8071 140.611 84.1636 140.367C84.5249 140.123 84.7056 139.769 84.7056 139.305C84.7056 139.056 84.6445 138.841 84.5225 138.66C84.4053 138.475 84.2393 138.306 84.0244 138.155C83.8096 138.003 83.5557 137.859 83.2627 137.723C82.9746 137.581 82.6646 137.435 82.3325 137.283C81.9761 137.093 81.644 136.9 81.3364 136.705C81.0288 136.509 80.7603 136.294 80.5308 136.06C80.3062 135.821 80.1279 135.552 79.9961 135.254C79.8691 134.957 79.8057 134.607 79.8057 134.207C79.8057 133.714 79.9155 133.287 80.1353 132.925C80.3599 132.559 80.6528 132.259 81.0142 132.024C81.3804 131.785 81.7954 131.609 82.2593 131.497C82.7231 131.38 83.1968 131.321 83.6802 131.321C84.7788 131.321 85.5796 131.446 86.0825 131.695V133.416C85.4868 132.986 84.7202 132.771 83.7827 132.771C83.5239 132.771 83.2651 132.796 83.0063 132.845C82.7524 132.894 82.5229 132.974 82.3179 133.086C82.1177 133.199 81.9541 133.343 81.8271 133.519C81.7002 133.694 81.6367 133.907 81.6367 134.156C81.6367 134.39 81.6855 134.593 81.7832 134.764C81.8809 134.935 82.0225 135.091 82.208 135.232C82.3984 135.374 82.6279 135.513 82.8965 135.65C83.1699 135.782 83.4849 135.926 83.8413 136.082C84.2075 136.272 84.5518 136.473 84.874 136.683C85.2012 136.893 85.4868 137.125 85.731 137.378C85.98 137.632 86.1753 137.916 86.3169 138.228C86.4634 138.536 86.5366 138.887 86.5366 139.283C86.5366 139.815 86.4292 140.264 86.2144 140.63C85.9995 140.997 85.709 141.294 85.3428 141.524C84.9814 141.753 84.564 141.919 84.0903 142.022C83.6167 142.125 83.1162 142.176 82.5889 142.176C82.4131 142.176 82.1958 142.161 81.937 142.132C81.6831 142.107 81.4219 142.068 81.1533 142.015C80.8848 141.966 80.6309 141.905 80.3916 141.832C80.1523 141.758 79.9595 141.675 79.813 141.583ZM89.1367 132.925C88.8584 132.925 88.6191 132.835 88.4189 132.654C88.2236 132.474 88.126 132.244 88.126 131.966C88.126 131.688 88.2236 131.456 88.4189 131.27C88.6191 131.084 88.8584 130.992 89.1367 130.992C89.4248 130.992 89.6689 131.084 89.8691 131.27C90.0693 131.456 90.1694 131.688 90.1694 131.966C90.1694 132.229 90.0693 132.457 89.8691 132.647C89.6689 132.833 89.4248 132.925 89.1367 132.925ZM89.979 142H88.2798V134.5H89.979V142ZM93.9121 142H92.2056V130.896H93.9121V142ZM102.591 134.5L99.6909 142H97.8525L95.0913 134.5H96.937L98.5996 139.744C98.7266 140.13 98.8047 140.467 98.834 140.755H98.856C98.8999 140.394 98.9683 140.066 99.061 139.773L100.804 134.5H102.591ZM109.256 142H107.608V140.828H107.579C107.062 141.727 106.302 142.176 105.301 142.176C104.564 142.176 103.985 141.976 103.565 141.575C103.15 141.175 102.943 140.645 102.943 139.986C102.943 138.57 103.758 137.745 105.389 137.51L107.616 137.195C107.616 136.126 107.108 135.591 106.092 135.591C105.199 135.591 104.393 135.899 103.675 136.514V135.027C104.466 134.559 105.379 134.324 106.415 134.324C108.309 134.324 109.256 135.257 109.256 137.122V142ZM107.616 138.316L106.041 138.536C105.553 138.599 105.184 138.719 104.935 138.895C104.691 139.065 104.569 139.368 104.569 139.803C104.569 140.12 104.681 140.381 104.906 140.586C105.135 140.787 105.44 140.887 105.821 140.887C106.339 140.887 106.766 140.706 107.103 140.345C107.445 139.979 107.616 139.52 107.616 138.968V138.316Z" fill="#666666"/>
<path d="M146.924 141H145.013L144.068 138.327H139.937L139.029 141H137.125L141.058 130.497H143.021L146.924 141ZM143.606 136.906L142.149 132.716C142.105 132.58 142.059 132.36 142.01 132.057H141.98C141.937 132.335 141.888 132.555 141.834 132.716L140.391 136.906H143.606ZM149.891 141H148.184V129.896H149.891V141ZM163.323 141H161.624V136.913C161.624 136.127 161.512 135.558 161.287 135.207C161.067 134.855 160.694 134.679 160.167 134.679C159.722 134.679 159.344 134.901 159.031 135.346C158.724 135.79 158.57 136.322 158.57 136.942V141H156.863V136.774C156.863 135.377 156.37 134.679 155.384 134.679C154.925 134.679 154.546 134.889 154.249 135.309C153.956 135.729 153.809 136.273 153.809 136.942V141H152.11V133.5H153.809V134.687H153.838C154.38 133.778 155.169 133.324 156.204 133.324C156.722 133.324 157.173 133.468 157.559 133.756C157.95 134.04 158.216 134.413 158.357 134.877C158.914 133.842 159.744 133.324 160.848 133.324C162.498 133.324 163.323 134.342 163.323 136.378V141ZM171.746 137.711H166.634C166.653 138.405 166.866 138.939 167.271 139.315C167.681 139.691 168.243 139.879 168.956 139.879C169.756 139.879 170.491 139.64 171.16 139.162V140.531C170.477 140.961 169.573 141.176 168.45 141.176C167.347 141.176 166.48 140.836 165.85 140.158C165.225 139.474 164.913 138.515 164.913 137.279C164.913 136.112 165.257 135.163 165.945 134.43C166.639 133.693 167.498 133.324 168.523 133.324C169.549 133.324 170.342 133.654 170.904 134.313C171.465 134.972 171.746 135.888 171.746 137.06V137.711ZM170.105 136.51C170.101 135.9 169.957 135.426 169.673 135.089C169.39 134.748 169 134.577 168.501 134.577C168.013 134.577 167.598 134.755 167.256 135.111C166.919 135.468 166.712 135.934 166.634 136.51H170.105ZM174.222 131.925C173.943 131.925 173.704 131.835 173.504 131.654C173.309 131.474 173.211 131.244 173.211 130.966C173.211 130.688 173.309 130.456 173.504 130.27C173.704 130.084 173.943 129.992 174.222 129.992C174.51 129.992 174.754 130.084 174.954 130.27C175.154 130.456 175.254 130.688 175.254 130.966C175.254 131.229 175.154 131.457 174.954 131.647C174.754 131.833 174.51 131.925 174.222 131.925ZM175.064 141H173.365V133.5H175.064V141ZM184.109 141H182.41V139.726H182.381C181.834 140.692 180.992 141.176 179.854 141.176C178.931 141.176 178.191 140.841 177.635 140.172C177.083 139.499 176.807 138.583 176.807 137.426C176.807 136.186 177.112 135.192 177.723 134.445C178.338 133.698 179.156 133.324 180.176 133.324C181.187 133.324 181.922 133.729 182.381 134.54H182.41V129.896H184.109V141ZM182.432 137.572V136.591C182.432 136.059 182.259 135.607 181.912 135.236C181.565 134.865 181.124 134.679 180.586 134.679C179.952 134.679 179.451 134.916 179.085 135.39C178.724 135.863 178.543 136.52 178.543 137.36C178.543 138.122 178.716 138.725 179.063 139.169C179.415 139.608 179.886 139.828 180.477 139.828C181.058 139.828 181.529 139.616 181.89 139.191C182.251 138.761 182.432 138.222 182.432 137.572ZM192.085 141H190.438V139.828H190.408C189.891 140.727 189.131 141.176 188.13 141.176C187.393 141.176 186.814 140.976 186.395 140.575C185.979 140.175 185.772 139.645 185.772 138.986C185.772 137.57 186.587 136.745 188.218 136.51L190.445 136.195C190.445 135.126 189.937 134.591 188.921 134.591C188.028 134.591 187.222 134.899 186.504 135.514V134.027C187.295 133.559 188.208 133.324 189.244 133.324C191.138 133.324 192.085 134.257 192.085 136.122V141ZM190.445 137.316L188.87 137.536C188.382 137.599 188.013 137.719 187.764 137.895C187.52 138.065 187.398 138.368 187.398 138.803C187.398 139.12 187.51 139.381 187.735 139.586C187.964 139.787 188.27 139.887 188.65 139.887C189.168 139.887 189.595 139.706 189.932 139.345C190.274 138.979 190.445 138.52 190.445 137.968V137.316Z" fill="#666666"/>
<path d="M220.718 141.597V139.253C221.143 139.61 221.604 139.878 222.102 140.059C222.6 140.235 223.103 140.323 223.611 140.323C223.909 140.323 224.167 140.296 224.387 140.242C224.612 140.188 224.797 140.115 224.944 140.022C225.095 139.925 225.208 139.812 225.281 139.686C225.354 139.554 225.391 139.412 225.391 139.261C225.391 139.056 225.332 138.873 225.215 138.711C225.098 138.55 224.937 138.401 224.731 138.265C224.531 138.128 224.292 137.996 224.014 137.869C223.735 137.742 223.435 137.613 223.113 137.481C222.292 137.139 221.68 136.722 221.274 136.229C220.874 135.735 220.674 135.14 220.674 134.441C220.674 133.895 220.784 133.426 221.003 133.035C221.223 132.64 221.521 132.315 221.897 132.061C222.278 131.807 222.717 131.622 223.215 131.504C223.713 131.382 224.241 131.321 224.797 131.321C225.344 131.321 225.828 131.355 226.248 131.424C226.672 131.487 227.063 131.587 227.419 131.724V133.914C227.244 133.792 227.051 133.685 226.841 133.592C226.636 133.499 226.423 133.423 226.204 133.365C225.984 133.301 225.764 133.255 225.544 133.226C225.33 133.196 225.125 133.182 224.929 133.182C224.661 133.182 224.417 133.208 224.197 133.262C223.977 133.311 223.792 133.382 223.64 133.475C223.489 133.567 223.372 133.68 223.289 133.812C223.206 133.938 223.164 134.083 223.164 134.244C223.164 134.419 223.21 134.578 223.303 134.72C223.396 134.856 223.528 134.988 223.699 135.115C223.87 135.237 224.077 135.359 224.321 135.481C224.565 135.599 224.841 135.721 225.149 135.848C225.569 136.023 225.945 136.211 226.277 136.412C226.614 136.607 226.902 136.829 227.141 137.078C227.38 137.327 227.563 137.613 227.69 137.935C227.817 138.252 227.881 138.624 227.881 139.048C227.881 139.634 227.769 140.127 227.544 140.528C227.324 140.923 227.024 141.246 226.643 141.495C226.262 141.739 225.818 141.915 225.31 142.022C224.807 142.129 224.275 142.183 223.713 142.183C223.137 142.183 222.588 142.134 222.065 142.037C221.548 141.939 221.099 141.792 220.718 141.597ZM235.623 142H233.433V140.923H233.403C232.9 141.763 232.156 142.183 231.169 142.183C230.442 142.183 229.868 141.978 229.448 141.568C229.033 141.153 228.826 140.601 228.826 139.913C228.826 138.458 229.688 137.618 231.411 137.393L233.447 137.122C233.447 136.302 233.003 135.892 232.114 135.892C231.221 135.892 230.371 136.158 229.565 136.69V134.947C229.888 134.781 230.327 134.634 230.884 134.507C231.445 134.38 231.956 134.317 232.415 134.317C234.553 134.317 235.623 135.384 235.623 137.518V142ZM233.447 138.953V138.448L232.085 138.624C231.333 138.721 230.957 139.061 230.957 139.642C230.957 139.905 231.047 140.123 231.228 140.293C231.414 140.459 231.663 140.542 231.975 140.542C232.41 140.542 232.764 140.394 233.037 140.096C233.311 139.793 233.447 139.412 233.447 138.953ZM239.768 142H237.454V130.896H239.768V142ZM248.455 138.909H243.562C243.64 139.998 244.326 140.542 245.62 140.542C246.445 140.542 247.17 140.347 247.795 139.957V141.626C247.102 141.998 246.201 142.183 245.093 142.183C243.882 142.183 242.942 141.849 242.273 141.18C241.604 140.506 241.27 139.568 241.27 138.367C241.27 137.122 241.631 136.136 242.354 135.408C243.076 134.681 243.965 134.317 245.02 134.317C246.113 134.317 246.958 134.642 247.554 135.291C248.154 135.94 248.455 136.822 248.455 137.935V138.909ZM246.309 137.488C246.309 136.414 245.874 135.877 245.005 135.877C244.634 135.877 244.312 136.031 244.038 136.338C243.77 136.646 243.606 137.029 243.547 137.488H246.309ZM249.341 141.802V139.927C249.722 140.157 250.1 140.328 250.476 140.44C250.857 140.552 251.216 140.608 251.553 140.608C251.963 140.608 252.285 140.552 252.52 140.44C252.759 140.328 252.878 140.157 252.878 139.927C252.878 139.781 252.825 139.659 252.717 139.561C252.61 139.463 252.471 139.378 252.3 139.305C252.134 139.231 251.951 139.166 251.75 139.107C251.55 139.048 251.357 138.982 251.172 138.909C250.874 138.797 250.61 138.677 250.381 138.55C250.156 138.418 249.966 138.267 249.81 138.096C249.658 137.925 249.541 137.728 249.458 137.503C249.38 137.278 249.341 137.012 249.341 136.705C249.341 136.285 249.431 135.923 249.612 135.621C249.797 135.318 250.042 135.071 250.344 134.881C250.652 134.686 251.001 134.544 251.392 134.456C251.787 134.363 252.197 134.317 252.622 134.317C252.954 134.317 253.291 134.344 253.633 134.397C253.975 134.446 254.312 134.52 254.644 134.617V136.404C254.351 136.233 254.036 136.106 253.699 136.023C253.367 135.936 253.04 135.892 252.717 135.892C252.566 135.892 252.422 135.906 252.285 135.936C252.153 135.96 252.036 135.999 251.934 136.053C251.831 136.102 251.75 136.167 251.692 136.25C251.633 136.329 251.604 136.419 251.604 136.521C251.604 136.658 251.648 136.775 251.736 136.873C251.824 136.971 251.938 137.056 252.08 137.129C252.222 137.198 252.378 137.261 252.549 137.32C252.725 137.374 252.898 137.43 253.069 137.488C253.376 137.596 253.655 137.713 253.904 137.84C254.153 137.967 254.365 138.116 254.541 138.287C254.722 138.458 254.858 138.658 254.951 138.887C255.049 139.117 255.098 139.39 255.098 139.708C255.098 140.152 255 140.533 254.805 140.85C254.614 141.163 254.358 141.419 254.036 141.619C253.718 141.814 253.35 141.956 252.93 142.044C252.515 142.137 252.083 142.183 251.633 142.183C250.808 142.183 250.044 142.056 249.341 141.802Z" fill="#666666"/>
<path d="M0 30.5H201" stroke="#999999"/>
<path d="M0 120.5H256" stroke="#999999"/>
</svg>
